<?xml version="1.0" encoding="utf-8"?>
<!-- Generator: Adobe Illustrator 23.0.3, SVG Export Plug-In . SVG Version: 6.00 Build 0)  -->
<svg version="1.1" id="Layer_1" xmlns="http://www.w3.org/2000/svg" xmlns:xlink="http://www.w3.org/1999/xlink" x="0px" y="0px"
	 viewBox="0 0 100 100" style="enable-background:new 0 0 100 100;" xml:space="preserve">
<style type="text/css">
	.st0{fill:#FFFFFF;}
</style>
<path class="st0" d="M0,0v100h100V0H0z M36.95,83.08h-9.18V28.99L15.26,39.97V29.8L27.77,19h9.18V83.08z M82.93,74.89v8.19H45.67
	v-8.19l24.66-29.97c2.28-2.76,3.42-5.61,3.42-8.55c0-6.48-3.12-9.72-9.36-9.72c-2.7,0-4.89,0.75-6.57,2.25
	c-1.92,1.74-2.88,4.29-2.88,7.65h-9.18c0-5.4,1.74-9.78,5.22-13.14c3.48-3.3,7.95-4.95,13.41-4.95c5.52,0,9.99,1.62,13.41,4.86
	c3.42,3.3,5.13,7.68,5.13,13.14c0,2.64-0.51,5.04-1.53,7.2c-0.84,1.74-2.34,3.96-4.5,6.66L56.83,74.89H82.93z"/>
</svg>
