<?xml version="1.0" encoding="utf-8"?>
<!-- Generator: Adobe Illustrator 23.0.3, SVG Export Plug-In . SVG Version: 6.00 Build 0)  -->
<svg version="1.1" id="Layer_1" xmlns="http://www.w3.org/2000/svg" xmlns:xlink="http://www.w3.org/1999/xlink" x="0px" y="0px"
	 viewBox="0 0 100 100" style="enable-background:new 0 0 100 100;" xml:space="preserve">
<style type="text/css">
	.st0{fill:#FFFFFF;}
</style>
<path class="st0" d="M63.94,53.2c-6.48,0-9.72,3.69-9.72,11.07c0,7.44,3.24,11.16,9.72,11.16c6.54,0,9.81-3.72,9.81-11.16
	C73.75,56.89,70.48,53.2,63.94,53.2z"/>
<path class="st0" d="M0,0v100h100V0H0z M36.95,83.08h-9.18V28.99L15.26,39.97V29.8L27.77,19h9.18V83.08z M77.62,78.31
	c-3.48,3.54-8.01,5.31-13.59,5.31c-5.64,0-10.2-1.71-13.68-5.13c-3.54-3.48-5.31-8.16-5.31-14.04c0-2.4,0.45-4.98,1.35-7.74
	c0.72-2.22,1.86-4.89,3.42-8.01L64.39,19h9.81L60.43,46.54c1.56-0.66,3.45-0.99,5.67-0.99c4.74,0,8.7,1.68,11.88,5.04
	c3.3,3.48,4.95,7.98,4.95,13.5C82.93,69.97,81.16,74.71,77.62,78.31z"/>
</svg>
