<?xml version="1.0" encoding="utf-8"?>
<!-- Generator: Adobe Illustrator 23.0.3, SVG Export Plug-In . SVG Version: 6.00 Build 0)  -->
<svg version="1.1" id="Layer_1" xmlns="http://www.w3.org/2000/svg" xmlns:xlink="http://www.w3.org/1999/xlink" x="0px" y="0px"
	 viewBox="0 0 200 160" style="enable-background:new 0 0 200 160;" xml:space="preserve">
<style type="text/css">
	.st0{fill:#EEEEEE;}
	.st1{fill:#333333;}
	.st2{fill:#FFFFFF;}
	.st3{fill:none;stroke:#666666;stroke-miterlimit:10;}
</style>
<rect y="115" class="st0" width="200" height="45"/>
<g>
	<rect x="59" y="22" class="st1" width="62" height="70"/>
</g>
<g>
	<path class="st2" d="M87.84,45.92c0,4.56-1.1,8.59-3.17,11.71c-2.02,2.98-5.23,4.9-8.26,4.9c-3.17,0-6.43-2.02-8.45-5.14
		c-2.02-3.17-3.02-6.96-3.02-11.52c0-9.17,5.04-16.37,11.47-16.37C82.9,29.5,87.84,36.61,87.84,45.92z M68.45,45.92
		c0,7.68,3.36,13.3,7.97,13.3c4.42,0,7.92-5.86,7.92-13.2c0-7.54-3.46-13.25-7.97-13.25C71.91,32.77,68.45,38.53,68.45,45.92z"/>
	<path class="st2" d="M115.06,45.92c0,4.56-1.1,8.59-3.17,11.71c-2.02,2.98-5.23,4.9-8.26,4.9c-3.17,0-6.43-2.02-8.45-5.14
		c-2.02-3.17-3.02-6.96-3.02-11.52c0-9.17,5.04-16.37,11.47-16.37C110.11,29.5,115.06,36.61,115.06,45.92z M95.66,45.92
		c0,7.68,3.36,13.3,7.97,13.3c4.42,0,7.92-5.86,7.92-13.2c0-7.54-3.46-13.25-7.97-13.25C99.12,32.77,95.66,38.53,95.66,45.92z"/>
</g>
<path class="st2" d="M70,72c-4.42,0-8,3.58-8,8s3.58,8,8,8s8-3.58,8-8S74.42,72,70,72z M73.24,83.54c-0.15,0.53-0.42,0.99-0.8,1.38
	c-0.6,0.6-1.4,0.9-2.4,0.9c-1.04,0-1.85-0.29-2.43-0.88c-0.29-0.29-0.5-0.62-0.64-1.01c-0.12-0.32-0.19-0.71-0.22-1.17h1.63
	c0.14,1.06,0.69,1.58,1.66,1.58c0.49,0,0.88-0.15,1.18-0.45c0.21-0.21,0.36-0.51,0.45-0.9c0.06-0.28,0.1-0.64,0.1-1.1
	c0-0.75-0.11-1.31-0.34-1.7c-0.27-0.46-0.71-0.69-1.33-0.69c-0.86,0-1.4,0.34-1.62,1.02H67V74.3h6.14v1.46h-4.67v3.01
	c0.42-0.44,1.04-0.66,1.89-0.66c0.87,0,1.56,0.24,2.05,0.74c0.4,0.4,0.67,0.88,0.82,1.44c0.12,0.43,0.18,0.96,0.18,1.6
	C73.4,82.58,73.35,83.13,73.24,83.54z"/>
<path class="st2" d="M112.23,80.51c-1.04,0-1.56,0.59-1.56,1.77c0,1.19,0.52,1.79,1.56,1.79c1.05,0,1.57-0.6,1.57-1.79
	C113.8,81.1,113.28,80.51,112.23,80.51z"/>
<path class="st2" d="M102,72v16h16V72H102z M107.91,85.29h-1.47v-8.65l-2,1.76v-1.63l2-1.73h1.47V85.29z M114.42,84.53
	c-0.56,0.57-1.28,0.85-2.17,0.85c-0.9,0-1.63-0.27-2.19-0.82c-0.57-0.56-0.85-1.31-0.85-2.25c0-0.38,0.07-0.8,0.22-1.24
	c0.12-0.36,0.3-0.78,0.55-1.28l2.33-4.75h1.57l-2.2,4.41c0.25-0.11,0.55-0.16,0.91-0.16c0.76,0,1.39,0.27,1.9,0.81
	c0.53,0.56,0.79,1.28,0.79,2.16C115.27,83.2,114.99,83.95,114.42,84.53z"/>
<polygon class="st2" points="82,87.2 90,72.8 98,87.2 "/>
<g>
	<path d="M95.87,101.38l-2.38,2.88v2.7h-0.76v-9.97h0.76v6.23l5.05-6.23h0.91l-3.08,3.81l3.6,6.16h-0.9L95.87,101.38z"/>
	<path d="M108.56,102.37c0,0.21,0,0.39-0.01,0.55c-0.01,0.44-0.04,0.82-0.08,1.15c-0.07,0.42-0.16,0.78-0.29,1.09
		c-0.15,0.36-0.34,0.66-0.57,0.9c-0.61,0.61-1.44,0.91-2.49,0.91h-3.35v-9.97h3.35c1.05,0,1.89,0.3,2.49,0.91
		c0.44,0.44,0.73,1.05,0.87,1.83c0.05,0.31,0.07,0.66,0.08,1.06c0.01,0.15,0.01,0.32,0.01,0.52V102.37z M107.81,100.96
		c-0.01-0.35-0.03-0.66-0.07-0.92c-0.1-0.7-0.33-1.23-0.67-1.6c-0.27-0.28-0.6-0.48-0.98-0.62c-0.34-0.1-0.72-0.15-1.16-0.15h-2.41
		v8.62h2.41c0.44,0,0.83-0.05,1.16-0.15c0.38-0.13,0.71-0.34,0.98-0.62c0.34-0.35,0.56-0.93,0.67-1.74
		c0.04-0.29,0.06-0.63,0.07-1.01V100.96z"/>
	<path d="M116.11,104.54h-4.65l-0.87,2.42h-0.81l3.67-9.97h0.67l3.67,9.97h-0.81L116.11,104.54z M111.7,103.87h4.17L113.79,98
		L111.7,103.87z"/>
</g>
<g>
	<path d="M70.42,10.03c1.17,1.24,2.77,2.1,4.81,2.57l-0.55,1.04c-0.62-0.17-1.2-0.37-1.75-0.62v5.43h-0.98v-0.44h-5.91v0.44h-0.98
		v-5.42c-0.54,0.24-1.13,0.44-1.75,0.61l-0.55-1.04c2.04-0.36,3.63-1.22,4.76-2.57h-4.43V9.21h5.41V7.75
		c-1.44,0.16-2.88,0.26-4.32,0.31l-0.16-0.98C67.2,7,70.28,6.64,73.27,5.98l0.38,0.98c-1.39,0.27-2.78,0.49-4.16,0.67v1.58h5.41
		v0.82H70.42z M69.49,10.41v2.08h-0.98v-2.08c-0.79,1-1.79,1.81-2.99,2.41h6.98C71.31,12.22,70.31,11.42,69.49,10.41z M71.95,15.01
		v-1.37h-5.91v1.37H71.95z M71.95,17.2v-1.37h-5.91v1.37H71.95z"/>
	<path d="M78.57,17.36v0.88h-0.98V6.97h10.83v11.16h-0.98v-0.77H78.57z M78.57,7.84v3.88h3.94V7.84H78.57z M78.57,16.48h3.94V12.6
		h-3.94V16.48z M87.43,7.84h-3.94v3.88h3.94V7.84z M87.43,16.48V12.6h-3.94v3.88H87.43z"/>
	<path d="M92.08,8.34v1.91h-0.98V7.52h5.41V5.98h0.98v1.53h5.41v2.73h-0.98V8.34H92.08z M97.49,17.36h5.41v0.88H91.09v-0.88h5.41
		v-2.79h-4.65v-0.82h10.23v0.82h-4.59V17.36z M96.02,9.16c-0.58,2.33-2,3.63-4.27,3.88l-0.33-0.98c1.9-0.15,3.1-1.17,3.61-3.06
		L96.02,9.16z M98.97,9.1v1.97c0,0.33,0.15,0.49,0.44,0.49h1.37c0.51,0,1.02-0.09,1.53-0.27v0.93c-0.47,0.15-0.98,0.22-1.53,0.22
		h-1.42c-0.91,0-1.37-0.46-1.37-1.37V9.1H98.97z"/>
	<path d="M104.71,9.76l0.66-0.71c0.8,0.58,1.48,1.24,2.02,1.97l-0.93,0.77C105.99,11.02,105.4,10.34,104.71,9.76z M104.88,17.85
		c0.95-1.39,1.6-3.04,1.97-4.98l0.93,0.49c-0.36,1.93-0.98,3.63-1.86,5.09L104.88,17.85z M105.42,6.7l0.66-0.71
		c0.8,0.62,1.44,1.28,1.91,1.97l-0.93,0.71C106.66,7.97,106.11,7.32,105.42,6.7z M110.02,15.06h3.5v-1.48h-3.41
		c-0.43,0.48-0.92,0.92-1.46,1.31l-0.77-0.93c1.35-0.8,2.24-1.73,2.68-2.79h-2.52v-0.82h2.46V8.72h-1.59V7.9h1.59V5.98h0.98V7.9
		h1.97V5.98h0.98V7.9h1.86v0.82h-1.86v1.64h2.46v0.82h-2.52c0.66,1.2,1.68,2.15,3.06,2.84l-0.82,0.93
		c-0.78-0.46-1.49-1.09-2.13-1.89v2.82H111v1.26c0,0.29,0.15,0.44,0.44,0.44h3.66c0.25,0,0.43-0.1,0.52-0.3s0.17-0.56,0.25-1.07
		l1.04,0.27c-0.04,0.55-0.19,1.01-0.46,1.39s-0.67,0.57-1.18,0.57h-4.05c-0.8,0-1.2-0.44-1.2-1.31V15.06z M111.66,11.18
		c-0.25,0.57-0.55,1.09-0.89,1.59h3.51c-0.35-0.47-0.67-1-0.98-1.59H111.66z M113.46,10.36V8.72h-1.97v1.64H113.46z"/>
</g>
<path d="M49.1,129.33h-4.53l-0.8-1.76c1.3-0.3,4.36-0.58,4.67-0.58c0.33,0,0.33-0.33,0.33-0.33s0-0.67-0.33-0.67
	c-0.32,0-3.63,0.3-5.11,0.62l-0.89-1.95l-0.5-2c0,0-0.17-0.67-0.83-0.67c-0.37,0-0.65,0.21-0.5,0.67l0.5,2l2,6h0.67V134h4.67v-3.33
	h0.67c0.33,0,0.33-0.33,0.33-0.33v-0.67C49.44,129.67,49.44,129.33,49.1,129.33z"/>
<path d="M34.89,149.33h4.53l0.8-1.76c-1.3-0.3-4.36-0.58-4.67-0.58c-0.33,0-0.33-0.33-0.33-0.33s0-0.67,0.33-0.67
	c0.32,0,3.63,0.3,5.11,0.62l0.89-1.95l0.5-2c0,0,0.17-0.67,0.83-0.67c0.37,0,0.65,0.21,0.5,0.67l-0.5,2l-2,6h-0.67V154h-4.67v-3.33
	h-0.67c-0.33,0-0.33-0.33-0.33-0.33v-0.67C34.56,149.67,34.56,149.33,34.89,149.33z"/>
<path d="M46.89,149.33h4.53l0.8-1.76c-1.3-0.3-4.36-0.58-4.67-0.58c-0.33,0-0.33-0.33-0.33-0.33s0-0.67,0.33-0.67
	c0.32,0,3.63,0.3,5.11,0.62l0.89-1.95l0.5-2c0,0,0.17-0.67,0.83-0.67c0.37,0,0.65,0.21,0.5,0.67l-0.5,2l-2,6h-0.67V154h-4.67v-3.33
	h-0.67c-0.33,0-0.33-0.33-0.33-0.33v-0.67C46.56,149.67,46.56,149.33,46.89,149.33z"/>
<polyline class="st3" points="45,72 50,72 50,82 58,82 "/>
<polyline class="st3" points="85,94 85,102 45,102 "/>
<line class="st3" x1="120" y1="102" x2="135" y2="102"/>
<line class="st3" x1="135" y1="12" x2="120" y2="12"/>
<line class="st3" x1="135" y1="42" x2="122" y2="42"/>
<polyline class="st3" points="135,72 130,72 130,82 122,82 "/>
</svg>
