<?xml version="1.0" encoding="utf-8"?>
<!-- Generator: Adobe Illustrator 23.0.3, SVG Export Plug-In . SVG Version: 6.00 Build 0)  -->
<svg version="1.1" id="Layer_1" xmlns="http://www.w3.org/2000/svg" xmlns:xlink="http://www.w3.org/1999/xlink" x="0px" y="0px"
	 viewBox="0 0 200 100" style="enable-background:new 0 0 200 100;" xml:space="preserve">
<path d="M15.79,61.12h37.78l6.69-14.64c-10.86-2.51-36.37-4.81-38.9-4.81c-2.78,0-2.78-2.78-2.78-2.78s0.01-5.56,2.78-5.56
	c2.63,0,30.25,2.5,42.57,5.13l7.42-16.23l4.17-16.67c0,0,1.39-5.56,6.95-5.56c3.08,0,5.45,1.77,4.16,5.56l-4.16,16.68l-16.67,50
	h-5.56V100H21.35V72.24h-5.56c-2.78,0-2.78-2.78-2.78-2.78V63.9C13.01,63.9,13.01,61.12,15.79,61.12z"/>
<path d="M115.79,61.12h37.78l6.69-14.64c-10.86-2.51-36.37-4.81-38.9-4.81c-2.78,0-2.78-2.78-2.78-2.78s0.01-5.56,2.78-5.56
	c2.63,0,30.25,2.5,42.57,5.13l7.42-16.23l4.17-16.67c0,0,1.39-5.56,6.95-5.56c3.08,0,5.45,1.77,4.16,5.56l-4.16,16.68l-16.67,50
	h-5.56V100h-38.89V72.24h-5.56c-2.78,0-2.78-2.78-2.78-2.78V63.9C113.01,63.9,113.01,61.12,115.79,61.12z"/>
</svg>
