<?xml version="1.0" encoding="utf-8"?>
<!-- Generator: Adobe Illustrator 23.0.3, SVG Export Plug-In . SVG Version: 6.00 Build 0)  -->
<svg version="1.1" id="Layer_1" xmlns="http://www.w3.org/2000/svg" xmlns:xlink="http://www.w3.org/1999/xlink" x="0px" y="0px"
	 viewBox="0 0 200 100" style="enable-background:new 0 0 200 100;" xml:space="preserve">
<path d="M84.21,61.12H46.43l-6.69-14.64c10.86-2.51,36.37-4.81,38.9-4.81c2.78,0,2.78-2.78,2.78-2.78s-0.01-5.56-2.78-5.56
	c-2.63,0-30.25,2.5-42.57,5.13l-7.42-16.23L24.48,5.56c0,0-1.39-5.56-6.95-5.56c-3.08,0-5.45,1.77-4.16,5.56l4.16,16.68l16.67,50
	h5.56V100h38.89V72.24h5.56c2.78,0,2.78-2.78,2.78-2.78V63.9C86.99,63.9,86.99,61.12,84.21,61.12z"/>
</svg>
