<?xml version="1.0" encoding="utf-8"?>
<!-- Generator: Adobe Illustrator 23.0.3, SVG Export Plug-In . SVG Version: 6.00 Build 0)  -->
<svg version="1.1" id="Layer_1" xmlns="http://www.w3.org/2000/svg" xmlns:xlink="http://www.w3.org/1999/xlink" x="0px" y="0px"
	 viewBox="0 0 300 160" style="enable-background:new 0 0 300 160;" xml:space="preserve">
<style type="text/css">
	.st0{fill:#666666;}
	.st1{fill:#FFFF00;}
	.st2{fill:#CE0040;}
	.st3{fill:#FFFFFF;}
	.st4{fill:none;stroke:#000000;stroke-miterlimit:10;}
	.st5{fill:#444444;}
	.st6{fill:#0059A3;}
</style>
<rect y="88" class="st0" width="300" height="16"/>
<rect class="st0" width="300" height="16"/>
<path class="st1" d="M280,156H20c-2.2,0-4-1.8-4-4v-8c0-2.2,1.8-4,4-4h260c2.2,0,4,1.8,4,4v8C284,154.2,282.2,156,280,156z"/>
<g>
	<path class="st2" d="M16,62c-2.21,0-4,1.79-4,4v8h4h12v-8v-4H16z"/>
	<rect x="16" y="64" class="st3" width="12" height="10"/>
	<path class="st4" d="M16,62c-2.21,0-4,1.79-4,4v8h4h12v-8v-4H16z"/>
</g>
<g>
	<g>
		<g>
			<rect x="92" y="62" class="st2" width="16" height="12"/>
			<rect x="92" y="64" class="st3" width="16" height="10"/>
			<rect x="92" y="62" class="st4" width="16" height="12"/>
		</g>
	</g>
	<g>
		<g>
			<rect x="76" y="62" class="st2" width="16" height="12"/>
			<rect x="76" y="64" class="st3" width="16" height="10"/>
			<rect x="76" y="62" class="st4" width="16" height="12"/>
		</g>
	</g>
	<g>
		<g>
			<rect x="60" y="62" class="st2" width="16" height="12"/>
			<rect x="60" y="64" class="st3" width="16" height="10"/>
			<rect x="60" y="62" class="st4" width="16" height="12"/>
		</g>
	</g>
	<g>
		<g>
			<rect x="44" y="62" class="st2" width="16" height="12"/>
			<rect x="44" y="64" class="st3" width="16" height="10"/>
			<rect x="44" y="62" class="st4" width="16" height="12"/>
		</g>
	</g>
	<g>
		<g>
			<rect x="28" y="62" class="st2" width="16" height="12"/>
			<rect x="28" y="64" class="st3" width="16" height="10"/>
			<rect x="28" y="62" class="st4" width="16" height="12"/>
		</g>
	</g>
</g>
<g>
	<path class="st2" d="M136,62c2.21,0,4,1.79,4,4v8h-4h-12v-8v-4H136z"/>
	<path class="st4" d="M136,62c2.21,0,4,1.79,4,4v8h-4h-12v-8v-4H136z"/>
</g>
<g>
	<path class="st2" d="M164,62c-2.21,0-4,1.79-4,4v8h4h12v-8v-4H164z"/>
	<path class="st4" d="M164,62c-2.21,0-4,1.79-4,4v8h4h12v-8v-4H164z"/>
</g>
<g>
	<g>
		<g>
			<rect x="256" y="62" class="st2" width="16" height="12"/>
			<rect x="256" y="64" class="st3" width="16" height="10"/>
			<rect x="256" y="62" class="st4" width="16" height="12"/>
		</g>
	</g>
	<g>
		<g>
			<rect x="240" y="62" class="st2" width="16" height="12"/>
			<rect x="240" y="64" class="st3" width="16" height="10"/>
			<rect x="240" y="62" class="st4" width="16" height="12"/>
		</g>
	</g>
	<g>
		<g>
			<rect x="224" y="62" class="st2" width="16" height="12"/>
			<rect x="224" y="64" class="st3" width="16" height="10"/>
			<rect x="224" y="62" class="st4" width="16" height="12"/>
		</g>
	</g>
	<g>
		<g>
			<rect x="208" y="62" class="st2" width="16" height="12"/>
			<rect x="208" y="64" class="st3" width="16" height="10"/>
			<rect x="208" y="62" class="st4" width="16" height="12"/>
		</g>
	</g>
	<g>
		<g>
			<rect x="192" y="62" class="st2" width="16" height="12"/>
			<rect x="192" y="64" class="st3" width="16" height="10"/>
			<rect x="192" y="62" class="st4" width="16" height="12"/>
		</g>
	</g>
</g>
<g>
	<path class="st2" d="M284,62c2.21,0,4,1.79,4,4v8h-4h-12v-8v-4H284z"/>
	<rect x="272" y="64" transform="matrix(-1 -4.486823e-11 4.486823e-11 -1 556 138)" class="st3" width="12" height="10"/>
	<path class="st4" d="M284,62c2.21,0,4,1.79,4,4v8h-4h-12v-8v-4H284z"/>
</g>
<g>
	<rect x="108" y="62" class="st2" width="16" height="12"/>
	<rect x="108" y="62" class="st4" width="16" height="12"/>
</g>
<g>
	<rect x="176" y="62" class="st2" width="16" height="12"/>
	<rect x="176" y="62" class="st4" width="16" height="12"/>
</g>
<g>
	<path class="st3" d="M116.01,72.23h-1.69l2.77-7.14h-2.26v1.34h-1.49v-2.75h5.44v1.4L116.01,72.23z"/>
</g>
<g>
	<path class="st3" d="M133.94,71.64c-0.5,0.44-1.14,0.66-1.93,0.66s-1.44-0.22-1.93-0.66c-0.54-0.46-0.8-1.1-0.8-1.9
		c0-0.46,0.12-0.88,0.36-1.24c0.17-0.26,0.4-0.48,0.71-0.68c-0.26-0.18-0.48-0.4-0.64-0.66c-0.22-0.34-0.32-0.71-0.32-1.12
		c0-0.74,0.26-1.33,0.78-1.79c0.5-0.43,1.11-0.65,1.85-0.65c0.74,0,1.35,0.22,1.85,0.65c0.51,0.46,0.77,1.05,0.77,1.79
		c0,0.41-0.1,0.78-0.31,1.12c-0.17,0.26-0.38,0.48-0.65,0.66c0.3,0.2,0.54,0.43,0.72,0.68c0.24,0.36,0.36,0.77,0.36,1.24
		C134.74,70.55,134.47,71.18,133.94,71.64z M132.85,68.88c-0.23-0.23-0.51-0.35-0.84-0.35s-0.61,0.12-0.84,0.35
		c-0.22,0.23-0.34,0.51-0.34,0.84s0.11,0.61,0.34,0.84c0.23,0.22,0.51,0.34,0.84,0.34s0.61-0.11,0.84-0.34
		c0.22-0.23,0.34-0.51,0.34-0.84S133.07,69.12,132.85,68.88z M132.01,65.02c-0.71,0-1.07,0.36-1.07,1.08c0,0.72,0.36,1.08,1.07,1.08
		c0.7,0,1.06-0.36,1.06-1.08C133.06,65.38,132.71,65.02,132.01,65.02z"/>
</g>
<g>
	<path class="st3" d="M170.48,67.4c-0.06,0.17-0.14,0.36-0.23,0.56l-2.09,4.27h-1.69l1.78-3.53c-0.18,0.07-0.39,0.11-0.64,0.11
		c-0.61,0-1.13-0.22-1.56-0.67c-0.46-0.48-0.7-1.1-0.7-1.86c0-0.82,0.26-1.48,0.77-1.97c0.49-0.46,1.12-0.7,1.9-0.7
		c0.78,0,1.41,0.23,1.9,0.68c0.51,0.48,0.77,1.13,0.77,1.96C170.68,66.61,170.61,66.99,170.48,67.4z M168.02,65.02
		c-0.74,0-1.1,0.42-1.1,1.25s0.37,1.25,1.1,1.25c0.74,0,1.1-0.42,1.1-1.25S168.75,65.02,168.02,65.02z"/>
</g>
<g>
	<path class="st3" d="M179.96,72.23v-6.86l-1.74,1.51V65.2l1.74-1.51h1.56v8.54H179.96z"/>
	<path class="st3" d="M189.36,69.76c0,0.78-0.26,1.41-0.77,1.88c-0.49,0.44-1.1,0.66-1.82,0.66c-0.73,0-1.34-0.22-1.82-0.66
		c-0.52-0.47-0.78-1.1-0.78-1.88v-3.6c0-0.78,0.26-1.41,0.78-1.88c0.49-0.44,1.1-0.66,1.82-0.66c0.73,0,1.34,0.22,1.82,0.66
		c0.51,0.47,0.77,1.1,0.77,1.88V69.76z M187.8,66.18c0-0.78-0.34-1.16-1.03-1.16c-0.7,0-1.04,0.39-1.04,1.16v3.56
		c0,0.77,0.35,1.15,1.04,1.15c0.69,0,1.03-0.38,1.03-1.15V66.18z"/>
</g>
<g>
	<path class="st2" d="M26,32c-2.21,0-4,1.79-4,4v8h4h12v-8v-4H26z"/>
	<rect x="26" y="34" class="st3" width="12" height="10"/>
	<path class="st4" d="M26,32c-2.21,0-4,1.79-4,4v8h4h12v-8v-4H26z"/>
</g>
<g>
	<g>
		<g>
			<rect x="102" y="32" class="st2" width="16" height="12"/>
			<rect x="102" y="34" class="st3" width="16" height="10"/>
			<rect x="102" y="32" class="st4" width="16" height="12"/>
		</g>
	</g>
	<g>
		<g>
			<rect x="86" y="32" class="st2" width="16" height="12"/>
			<rect x="86" y="34" class="st3" width="16" height="10"/>
			<rect x="86" y="32" class="st4" width="16" height="12"/>
		</g>
	</g>
	<g>
		<g>
			<rect x="70" y="32" class="st2" width="16" height="12"/>
			<rect x="70" y="34" class="st3" width="16" height="10"/>
			<rect x="70" y="32" class="st4" width="16" height="12"/>
		</g>
	</g>
	<g>
		<g>
			<rect x="54" y="32" class="st2" width="16" height="12"/>
			<rect x="54" y="34" class="st3" width="16" height="10"/>
			<rect x="54" y="32" class="st4" width="16" height="12"/>
		</g>
	</g>
	<g>
		<g>
			<rect x="38" y="32" class="st2" width="16" height="12"/>
			<rect x="38" y="34" class="st3" width="16" height="10"/>
			<rect x="38" y="32" class="st4" width="16" height="12"/>
		</g>
	</g>
</g>
<g>
	<path class="st2" d="M146,32c2.21,0,4,1.79,4,4v8h-4h-12v-8v-4H146z"/>
	<path class="st4" d="M146,32c2.21,0,4,1.79,4,4v8h-4h-12v-8v-4H146z"/>
</g>
<g>
	<path class="st2" d="M154,32c-2.21,0-4,1.79-4,4v8h4h12v-8v-4H154z"/>
	<path class="st4" d="M154,32c-2.21,0-4,1.79-4,4v8h4h12v-8v-4H154z"/>
</g>
<g>
	<g>
		<g>
			<rect x="246" y="32" class="st2" width="16" height="12"/>
			<rect x="246" y="34" class="st3" width="16" height="10"/>
			<rect x="246" y="32" class="st4" width="16" height="12"/>
		</g>
	</g>
	<g>
		<g>
			<rect x="230" y="32" class="st2" width="16" height="12"/>
			<rect x="230" y="34" class="st3" width="16" height="10"/>
			<rect x="230" y="32" class="st4" width="16" height="12"/>
		</g>
	</g>
	<g>
		<g>
			<rect x="214" y="32" class="st2" width="16" height="12"/>
			<rect x="214" y="34" class="st3" width="16" height="10"/>
			<rect x="214" y="32" class="st4" width="16" height="12"/>
		</g>
	</g>
	<g>
		<g>
			<rect x="198" y="32" class="st2" width="16" height="12"/>
			<rect x="198" y="34" class="st3" width="16" height="10"/>
			<rect x="198" y="32" class="st4" width="16" height="12"/>
		</g>
	</g>
	<g>
		<g>
			<rect x="182" y="32" class="st2" width="16" height="12"/>
			<rect x="182" y="34" class="st3" width="16" height="10"/>
			<rect x="182" y="32" class="st4" width="16" height="12"/>
		</g>
	</g>
</g>
<g>
	<path class="st2" d="M274,32c2.21,0,4,1.79,4,4v8h-4h-12v-8v-4H274z"/>
	<rect x="262" y="34" transform="matrix(-1 -4.486823e-11 4.486823e-11 -1 536 78)" class="st3" width="12" height="10"/>
	<path class="st4" d="M274,32c2.21,0,4,1.79,4,4v8h-4h-12v-8v-4H274z"/>
</g>
<g>
	<rect x="118" y="32" class="st2" width="16" height="12"/>
	<rect x="118" y="32" class="st4" width="16" height="12"/>
</g>
<g>
	<rect x="166" y="32" class="st2" width="16" height="12"/>
	<rect x="166" y="32" class="st4" width="16" height="12"/>
</g>
<g>
	<path class="st3" d="M126.01,42.23h-1.69l2.77-7.14h-2.26v1.34h-1.49v-2.75h5.44v1.4L126.01,42.23z"/>
</g>
<g>
	<path class="st3" d="M143.94,41.64c-0.5,0.44-1.14,0.66-1.93,0.66s-1.44-0.22-1.93-0.66c-0.54-0.46-0.8-1.1-0.8-1.9
		c0-0.46,0.12-0.88,0.36-1.24c0.17-0.26,0.4-0.48,0.71-0.68c-0.26-0.18-0.48-0.4-0.64-0.66c-0.22-0.34-0.32-0.71-0.32-1.12
		c0-0.74,0.26-1.33,0.78-1.79c0.5-0.43,1.11-0.65,1.85-0.65c0.74,0,1.35,0.22,1.85,0.65c0.51,0.46,0.77,1.05,0.77,1.79
		c0,0.41-0.1,0.78-0.31,1.12c-0.17,0.26-0.38,0.48-0.65,0.66c0.3,0.2,0.54,0.43,0.72,0.68c0.24,0.36,0.36,0.77,0.36,1.24
		C144.74,40.55,144.47,41.18,143.94,41.64z M142.85,38.88c-0.23-0.23-0.51-0.35-0.84-0.35s-0.61,0.12-0.84,0.35
		c-0.22,0.23-0.34,0.51-0.34,0.84s0.11,0.61,0.34,0.84c0.23,0.22,0.51,0.34,0.84,0.34s0.61-0.11,0.84-0.34
		c0.22-0.23,0.34-0.51,0.34-0.84S143.07,39.12,142.85,38.88z M142.01,35.02c-0.71,0-1.07,0.36-1.07,1.08c0,0.72,0.36,1.08,1.07,1.08
		c0.7,0,1.06-0.36,1.06-1.08C143.06,35.38,142.71,35.02,142.01,35.02z"/>
</g>
<g>
	<path class="st3" d="M160.48,37.4c-0.06,0.17-0.14,0.36-0.23,0.56l-2.09,4.27h-1.69l1.78-3.53c-0.18,0.07-0.39,0.11-0.64,0.11
		c-0.61,0-1.13-0.22-1.56-0.67c-0.46-0.48-0.7-1.1-0.7-1.86c0-0.82,0.26-1.48,0.77-1.97c0.49-0.46,1.12-0.7,1.9-0.7
		c0.78,0,1.41,0.23,1.9,0.68c0.51,0.48,0.77,1.13,0.77,1.96C160.68,36.61,160.61,36.99,160.48,37.4z M158.02,35.02
		c-0.74,0-1.1,0.42-1.1,1.25s0.37,1.25,1.1,1.25c0.74,0,1.1-0.42,1.1-1.25S158.75,35.02,158.02,35.02z"/>
</g>
<g>
	<path class="st3" d="M169.96,42.23v-6.86l-1.74,1.51V35.2l1.74-1.51h1.56v8.54H169.96z"/>
	<path class="st3" d="M179.36,39.76c0,0.78-0.26,1.41-0.77,1.88c-0.49,0.44-1.1,0.66-1.82,0.66c-0.73,0-1.34-0.22-1.82-0.66
		c-0.52-0.47-0.78-1.1-0.78-1.88v-3.6c0-0.78,0.26-1.41,0.78-1.88c0.49-0.44,1.1-0.66,1.82-0.66c0.73,0,1.34,0.22,1.82,0.66
		c0.51,0.47,0.77,1.1,0.77,1.88V39.76z M177.8,36.18c0-0.78-0.34-1.16-1.03-1.16c-0.7,0-1.04,0.39-1.04,1.16v3.56
		c0,0.77,0.35,1.15,1.04,1.15c0.69,0,1.03-0.38,1.03-1.15V36.18z"/>
</g>
<polygon class="st5" points="12,50 5,54 12,58 74,58 74,50 "/>
<g>
	<path class="st3" d="M17.75,52.56c0.16,0.26,0.33,0.5,0.51,0.71c0.37-0.35,0.63-0.78,0.78-1.29l0.46,0.14
		c-0.06,0.19-0.14,0.37-0.22,0.54c0.31,0.18,0.59,0.38,0.85,0.58l-0.33,0.44c-0.21-0.22-0.46-0.44-0.74-0.63
		c-0.14,0.22-0.29,0.41-0.46,0.59c0.54,0.51,1.18,0.83,1.91,0.97l-0.27,0.52c-1.11-0.36-1.94-0.96-2.49-1.78v1.09h-0.49v-1.09
		c-0.49,0.84-1.34,1.43-2.54,1.78l-0.22-0.52c0.79-0.12,1.46-0.46,2-1.01c-0.19-0.2-0.41-0.38-0.66-0.56
		c-0.21,0.33-0.45,0.61-0.74,0.85l-0.38-0.41c0.55-0.38,0.91-0.88,1.09-1.5l0.46,0.14c-0.06,0.19-0.14,0.37-0.22,0.54
		c0.29,0.17,0.55,0.35,0.79,0.54c0.15-0.19,0.28-0.41,0.41-0.64v-0.74h-2.71v-0.44h2.71v-0.71h0.49v0.71h2.71v0.44h-2.71V52.56z
		 M15.45,55.93l-0.27-0.44c0.71-0.24,1.24-0.67,1.59-1.31l0.41,0.22c-0.04,0.08-0.08,0.15-0.13,0.22h1.69v0.44
		c-0.15,0.22-0.32,0.42-0.51,0.6c0.57,0.22,1.12,0.46,1.65,0.71l-0.25,0.49c-0.57-0.32-1.17-0.61-1.8-0.87
		c-0.62,0.47-1.41,0.77-2.35,0.93l-0.14-0.49c0.8-0.1,1.47-0.31,2-0.63c-0.34-0.13-0.68-0.25-1.04-0.37
		C16.05,55.62,15.77,55.79,15.45,55.93z M18.18,55.05H16.7c-0.02,0.02-0.04,0.04-0.06,0.06c0.38,0.12,0.76,0.24,1.12,0.37
		C17.92,55.35,18.06,55.21,18.18,55.05z"/>
	<path class="st3" d="M22.29,56.37v0.44h-0.49v-5.63h5.41v5.58h-0.49v-0.38H22.29z M22.29,51.61v1.94h1.97v-1.94H22.29z
		 M22.29,55.93h1.97v-1.94h-1.97V55.93z M26.71,51.61h-1.97v1.94h1.97V51.61z M26.71,55.93v-1.94h-1.97v1.94H26.71z"/>
	<path class="st3" d="M29.48,51.28v1.86c0,1.55-0.23,2.81-0.68,3.77l-0.46-0.3c0.44-0.84,0.66-2,0.66-3.47v-2.27h5.47v0.41h-2.27
		c-0.04,0.22-0.09,0.46-0.16,0.71h1.89v2.73h-1.56v1.59c0,0.4-0.17,0.6-0.52,0.6H31.2l-0.05-0.44h0.57c0.09,0,0.14-0.05,0.14-0.16
		v-1.59h-1.61v-2.73h1.29c0.07-0.24,0.12-0.47,0.14-0.71H29.48z M30.68,55.11l0.44,0.25c-0.29,0.69-0.73,1.21-1.31,1.56l-0.33-0.46
		C30.01,56.14,30.41,55.69,30.68,55.11z M30.73,53.17h2.68v-0.79h-2.68V53.17z M30.73,54.34h2.68v-0.79h-2.68V54.34z M32.95,55.41
		l0.38-0.3c0.49,0.47,0.89,0.95,1.2,1.42l-0.46,0.38C33.76,56.4,33.39,55.9,32.95,55.41z"/>
	<path class="st3" d="M42.42,52.9l-1.3,2.92H40.8l-1.32-2.92v3.52h-0.32v-4.27h0.32l1.49,3.29l1.45-3.29h0.32v4.27h-0.32V52.9z"/>
	<path class="st3" d="M45.87,56.08c-0.22,0.25-0.5,0.38-0.85,0.38c-0.32,0-0.58-0.09-0.77-0.28c-0.2-0.19-0.3-0.46-0.3-0.8v-1.85
		h0.31v1.79c0,0.58,0.27,0.86,0.8,0.86c0.54,0,0.82-0.29,0.82-0.86v-1.79h0.31v2.89h-0.31V56.08z"/>
	<path class="st3" d="M49.42,56.58c0,0.37-0.1,0.67-0.31,0.9c-0.21,0.24-0.5,0.35-0.87,0.35c-0.35,0-0.67-0.13-0.95-0.38l0.2-0.2
		c0.13,0.12,0.24,0.2,0.32,0.24c0.11,0.05,0.25,0.08,0.43,0.08c0.29,0,0.51-0.1,0.67-0.29c0.14-0.17,0.21-0.41,0.21-0.71v-0.52
		c-0.12,0.16-0.25,0.27-0.4,0.33c-0.12,0.05-0.28,0.08-0.46,0.08c-0.3,0-0.54-0.08-0.71-0.25c-0.14-0.14-0.23-0.32-0.29-0.55
		c-0.05-0.19-0.08-0.42-0.08-0.68c0-0.26,0.03-0.49,0.08-0.68c0.06-0.23,0.16-0.42,0.29-0.55c0.17-0.17,0.4-0.25,0.71-0.25
		c0.18,0,0.33,0.03,0.46,0.08c0.15,0.06,0.28,0.17,0.4,0.33v-0.37h0.31V56.58z M49.08,54.53c-0.02-0.15-0.06-0.28-0.11-0.39
		c-0.13-0.25-0.35-0.38-0.67-0.38c-0.32,0-0.54,0.13-0.67,0.38c-0.06,0.11-0.09,0.24-0.11,0.39c-0.02,0.12-0.03,0.27-0.03,0.44
		s0.01,0.32,0.03,0.44c0.02,0.15,0.06,0.28,0.11,0.38c0.13,0.26,0.35,0.38,0.67,0.38c0.32,0,0.54-0.13,0.67-0.38
		c0.06-0.1,0.09-0.23,0.11-0.38c0.02-0.12,0.03-0.27,0.03-0.44S49.1,54.65,49.08,54.53z"/>
	<path class="st3" d="M50.55,52.93h0.38v0.38h-0.38V52.93z M50.58,53.53h0.31v2.89h-0.31V53.53z"/>
	<path class="st3" d="M52.82,56.42c-0.46,0-0.7-0.25-0.7-0.76v-1.91h-0.4v-0.23h0.4V52.6h0.31v0.92h0.65v0.23h-0.65v1.91
		c0,0.32,0.15,0.48,0.44,0.48h0.21v0.27H52.82z"/>
	<path class="st3" d="M55.68,56.13c-0.22,0.22-0.51,0.32-0.88,0.32c-0.4,0-0.68-0.09-0.85-0.26c-0.14-0.14-0.21-0.33-0.21-0.56
		c0-0.56,0.34-0.83,1.01-0.83h0.94v-0.32c0-0.47-0.27-0.71-0.82-0.71c-0.36,0-0.63,0.12-0.8,0.37l-0.22-0.19
		c0.21-0.3,0.55-0.44,1.02-0.44c0.75,0,1.12,0.32,1.12,0.95v1.98h-0.31V56.13z M54.78,55.04c-0.49,0-0.74,0.19-0.74,0.58
		c0,0.38,0.25,0.56,0.76,0.56c0.16,0,0.28-0.01,0.38-0.04c0.13-0.03,0.25-0.09,0.34-0.19c0.11-0.1,0.16-0.29,0.16-0.55v-0.37H54.78z
		"/>
	<path class="st3" d="M59.5,56.42l-0.82-2.41l-0.82,2.41h-0.31l-0.92-2.89h0.34l0.74,2.53l0.83-2.53h0.3l0.83,2.53l0.74-2.53h0.34
		l-0.92,2.89H59.5z"/>
	<path class="st3" d="M63.1,56.13c-0.22,0.22-0.51,0.32-0.88,0.32c-0.4,0-0.68-0.09-0.85-0.26c-0.14-0.14-0.21-0.33-0.21-0.56
		c0-0.56,0.34-0.83,1.01-0.83h0.94v-0.32c0-0.47-0.27-0.71-0.82-0.71c-0.36,0-0.63,0.12-0.8,0.37l-0.22-0.19
		c0.21-0.3,0.55-0.44,1.02-0.44c0.75,0,1.12,0.32,1.12,0.95v1.98H63.1V56.13z M62.2,55.04c-0.49,0-0.74,0.19-0.74,0.58
		c0,0.38,0.25,0.56,0.76,0.56c0.16,0,0.28-0.01,0.38-0.04c0.13-0.03,0.25-0.09,0.34-0.19c0.11-0.1,0.16-0.29,0.16-0.55v-0.37H62.2z"
		/>
	<path class="st3" d="M66.17,53.99c-0.15-0.15-0.33-0.23-0.55-0.23c-0.24,0-0.43,0.09-0.58,0.26c-0.13,0.16-0.2,0.37-0.2,0.61v1.78
		h-0.31v-2.89h0.31v0.38c0.18-0.28,0.46-0.42,0.85-0.42c0.28,0,0.51,0.09,0.7,0.28L66.17,53.99z"/>
	<path class="st3" d="M68.64,56.13c-0.22,0.22-0.51,0.32-0.88,0.32c-0.4,0-0.68-0.09-0.85-0.26c-0.14-0.14-0.21-0.33-0.21-0.56
		c0-0.56,0.34-0.83,1.01-0.83h0.94v-0.32c0-0.47-0.27-0.71-0.82-0.71c-0.36,0-0.63,0.12-0.8,0.37l-0.22-0.19
		c0.21-0.3,0.55-0.44,1.02-0.44c0.75,0,1.12,0.32,1.12,0.95v1.98h-0.31V56.13z M67.74,55.04c-0.49,0-0.74,0.19-0.74,0.58
		c0,0.38,0.25,0.56,0.76,0.56c0.16,0,0.28-0.01,0.38-0.04c0.13-0.03,0.25-0.09,0.34-0.19c0.11-0.1,0.16-0.29,0.16-0.55v-0.37H67.74z
		"/>
</g>
<polygon class="st5" points="288,50 295,54 288,58 244,58 244,50 "/>
<g>
	<path class="st3" d="M248.44,52.65l0.33-0.33c0.42,0.29,0.77,0.63,1.04,1.01l-0.41,0.38C249.14,53.31,248.82,52.96,248.44,52.65z
		 M248.44,56.58c0.62-0.66,1.07-1.5,1.34-2.52l0.44,0.25c-0.33,1.06-0.77,1.92-1.31,2.6L248.44,56.58z M248.71,51.01l0.3-0.33
		c0.42,0.27,0.76,0.59,1.01,0.96l-0.44,0.36C249.37,51.63,249.08,51.3,248.71,51.01z M250.3,51.44v-0.41h4.21v0.41h-0.71v4.87
		c0,0.4-0.2,0.6-0.6,0.6h-0.82l-0.08-0.44h0.85c0.11,0,0.16-0.05,0.16-0.16v-4.87H250.3z M250.52,52.35h2.08v2.79h-1.59v0.57h-0.49
		V52.35z M251.01,52.76v1.97h1.09v-1.97H251.01z"/>
	<path class="st3" d="M256.29,56.37v0.44h-0.49v-5.63h5.41v5.58h-0.49v-0.38H256.29z M256.29,51.61v1.94h1.97v-1.94H256.29z
		 M256.29,55.93h1.97v-1.94h-1.97V55.93z M260.71,51.61h-1.97v1.94h1.97V51.61z M260.71,55.93v-1.94h-1.97v1.94H260.71z"/>
	<path class="st3" d="M267.5,54.03l-1.02,1.24v1.16h-0.32v-4.27h0.32v2.67l2.17-2.67h0.39l-1.32,1.63l1.54,2.64h-0.38L267.5,54.03z"
		/>
	<path class="st3" d="M271.65,56.13c-0.22,0.22-0.51,0.32-0.88,0.32c-0.4,0-0.68-0.09-0.85-0.26c-0.14-0.14-0.21-0.33-0.21-0.56
		c0-0.56,0.34-0.83,1.01-0.83h0.94v-0.32c0-0.47-0.27-0.71-0.82-0.71c-0.36,0-0.63,0.12-0.8,0.37l-0.22-0.19
		c0.21-0.3,0.55-0.44,1.02-0.44c0.75,0,1.12,0.32,1.12,0.95v1.98h-0.31V56.13z M270.75,55.04c-0.49,0-0.74,0.19-0.74,0.58
		c0,0.38,0.25,0.56,0.76,0.56c0.16,0,0.28-0.01,0.38-0.04c0.13-0.03,0.25-0.09,0.34-0.19c0.11-0.1,0.16-0.29,0.16-0.55v-0.37H270.75
		z"/>
	<path class="st3" d="M275.47,56.42l-0.82-2.41l-0.82,2.41h-0.31l-0.92-2.89h0.34l0.74,2.53l0.83-2.53h0.3l0.83,2.53l0.74-2.53h0.34
		l-0.92,2.89H275.47z"/>
	<path class="st3" d="M279.07,56.13c-0.22,0.22-0.51,0.32-0.88,0.32c-0.4,0-0.68-0.09-0.85-0.26c-0.14-0.14-0.21-0.33-0.21-0.56
		c0-0.56,0.34-0.83,1.01-0.83h0.94v-0.32c0-0.47-0.27-0.71-0.82-0.71c-0.36,0-0.63,0.12-0.8,0.37l-0.22-0.19
		c0.21-0.3,0.55-0.44,1.02-0.44c0.75,0,1.12,0.32,1.12,0.95v1.98h-0.31V56.13z M278.17,55.04c-0.49,0-0.74,0.19-0.74,0.58
		c0,0.38,0.25,0.56,0.76,0.56c0.16,0,0.28-0.01,0.38-0.04c0.13-0.03,0.25-0.09,0.34-0.19c0.11-0.1,0.16-0.29,0.16-0.55v-0.37H278.17
		z"/>
	<path class="st3" d="M282.28,56.05c-0.12,0.16-0.25,0.27-0.4,0.33c-0.12,0.05-0.28,0.08-0.46,0.08c-0.3,0-0.54-0.08-0.71-0.25
		c-0.14-0.14-0.23-0.32-0.29-0.55c-0.05-0.19-0.08-0.42-0.08-0.68c0-0.26,0.03-0.49,0.08-0.68c0.06-0.23,0.16-0.42,0.29-0.55
		c0.17-0.17,0.4-0.25,0.71-0.25c0.18,0,0.33,0.03,0.46,0.08c0.15,0.06,0.28,0.17,0.4,0.33v-1.75h0.31v4.27h-0.31V56.05z
		 M282.25,54.53c-0.02-0.15-0.06-0.28-0.11-0.39c-0.13-0.25-0.35-0.38-0.67-0.38c-0.32,0-0.54,0.13-0.67,0.38
		c-0.05,0.11-0.09,0.24-0.11,0.39c-0.02,0.12-0.03,0.27-0.03,0.44s0.01,0.32,0.03,0.44c0.02,0.15,0.06,0.28,0.11,0.38
		c0.13,0.26,0.35,0.38,0.67,0.38c0.32,0,0.54-0.13,0.67-0.38c0.06-0.1,0.09-0.23,0.11-0.38c0.02-0.12,0.03-0.27,0.03-0.44
		S282.27,54.65,282.25,54.53z"/>
	<path class="st3" d="M285.45,56.13c-0.21,0.22-0.51,0.32-0.88,0.32c-0.4,0-0.68-0.09-0.85-0.26c-0.14-0.14-0.21-0.33-0.21-0.56
		c0-0.56,0.34-0.83,1.01-0.83h0.94v-0.32c0-0.47-0.27-0.71-0.82-0.71c-0.36,0-0.63,0.12-0.8,0.37l-0.22-0.19
		c0.21-0.3,0.55-0.44,1.02-0.44c0.75,0,1.12,0.32,1.12,0.95v1.98h-0.31V56.13z M284.55,55.04c-0.49,0-0.74,0.19-0.74,0.58
		c0,0.38,0.25,0.56,0.76,0.56c0.16,0,0.28-0.01,0.38-0.04c0.13-0.03,0.25-0.09,0.34-0.19c0.11-0.1,0.16-0.29,0.16-0.55v-0.37H284.55
		z"/>
</g>
<polygon class="st5" points="160,50 153,54 160,58 206,58 206,50 "/>
<g>
	<path class="st3" d="M162.44,52.65l0.3-0.36c0.46,0.29,0.84,0.63,1.15,1.01l-0.41,0.41C163.19,53.29,162.84,52.94,162.44,52.65z
		 M164.24,54.31c-0.31,1.02-0.75,1.89-1.31,2.6l-0.49-0.36c0.62-0.69,1.08-1.53,1.37-2.52L164.24,54.31z M162.93,51.03l0.27-0.36
		c0.46,0.24,0.85,0.53,1.18,0.88l-0.41,0.41C163.68,51.6,163.33,51.29,162.93,51.03z M165.75,52.78v-0.34l-1.31,0.1l-0.05-0.46
		l1.37-0.1v-1.29h0.49v1.26l2.16-0.16l0.05,0.46l-2.21,0.17v0.38c0,0.07,0,0.14,0,0.21l1.83-0.15l0.05,0.46l-1.87,0.15
		c0.01,0.22,0.03,0.42,0.05,0.61l2.1-0.19l0.05,0.46l-2.08,0.19c0.06,0.34,0.15,0.63,0.26,0.85c0.38-0.27,0.72-0.58,1.03-0.93
		l0.41,0.36c-0.36,0.38-0.75,0.71-1.17,1c0.27,0.36,0.51,0.53,0.71,0.53c0.13,0,0.22-0.05,0.29-0.15s0.11-0.29,0.15-0.56l0.49,0.22
		c-0.04,0.35-0.13,0.61-0.27,0.79s-0.35,0.27-0.6,0.27c-0.42,0-0.83-0.27-1.21-0.82c-0.61,0.36-1.28,0.63-1.99,0.82l-0.22-0.49
		c0.72-0.16,1.37-0.42,1.96-0.76c-0.14-0.3-0.24-0.66-0.32-1.08l-1.36,0.12l-0.05-0.46l1.35-0.12c-0.02-0.19-0.04-0.4-0.05-0.61
		l-0.95,0.08l-0.05-0.46l0.99-0.08C165.75,52.95,165.75,52.87,165.75,52.78z M167.06,50.68c0.33,0.2,0.62,0.44,0.88,0.71l-0.41,0.38
		c-0.24-0.27-0.5-0.52-0.79-0.74L167.06,50.68z"/>
	<path class="st3" d="M171.32,52.87h-1.67v-0.44h2.16v0.44c-0.18,1.55-0.88,2.73-2.11,3.55l-0.27-0.52
		C170.53,55.21,171.16,54.2,171.32,52.87z M172.75,56.26c0,0.44-0.2,0.66-0.6,0.66h-0.52l-0.11-0.44h0.49
		c0.16,0,0.25-0.07,0.25-0.22v-5.58h0.49v1.58c0.14,0.35,0.29,0.67,0.45,0.97c0.57-0.4,1.07-0.91,1.49-1.51l0.46,0.36
		c-0.51,0.63-1.08,1.16-1.71,1.6c0.62,1.05,1.36,1.81,2.21,2.26l-0.36,0.49c-1.1-0.68-1.95-1.69-2.54-3.01V56.26z"/>
	<path class="st3" d="M182.3,55.38h-1.99l-0.37,1.04h-0.35l1.57-4.27h0.29l1.57,4.27h-0.35L182.3,55.38z M180.41,55.09h1.79
		l-0.89-2.51L180.41,55.09z"/>
	<path class="st3" d="M184.58,56.46c-0.49,0-0.88-0.14-1.17-0.41l0.21-0.21c0.22,0.24,0.54,0.35,0.95,0.35
		c0.58,0,0.87-0.2,0.87-0.59c0-0.28-0.18-0.45-0.55-0.49l-0.48-0.04c-0.58-0.05-0.87-0.3-0.87-0.76c0-0.55,0.35-0.82,1.04-0.82
		c0.4,0,0.74,0.1,1.01,0.31l-0.2,0.2c-0.22-0.16-0.49-0.25-0.81-0.25c-0.49,0-0.74,0.19-0.74,0.56c0,0.28,0.2,0.45,0.59,0.49
		l0.47,0.04c0.27,0.03,0.47,0.09,0.61,0.19c0.16,0.12,0.24,0.31,0.24,0.57C185.74,56.17,185.35,56.46,184.58,56.46z"/>
	<path class="st3" d="M188.36,56.13c-0.22,0.22-0.51,0.32-0.88,0.32c-0.4,0-0.68-0.09-0.85-0.26c-0.14-0.14-0.21-0.33-0.21-0.56
		c0-0.56,0.34-0.83,1.01-0.83h0.94v-0.32c0-0.47-0.27-0.71-0.82-0.71c-0.36,0-0.63,0.12-0.8,0.37l-0.22-0.19
		c0.21-0.3,0.55-0.44,1.02-0.44c0.75,0,1.12,0.32,1.12,0.95v1.98h-0.31V56.13z M187.46,55.04c-0.49,0-0.74,0.19-0.74,0.58
		c0,0.38,0.25,0.56,0.76,0.56c0.16,0,0.28-0.01,0.38-0.04c0.13-0.03,0.25-0.09,0.34-0.19c0.11-0.1,0.16-0.29,0.16-0.55v-0.37H187.46
		z"/>
	<path class="st3" d="M193.64,54.63c0-0.58-0.27-0.86-0.8-0.86c-0.54,0-0.82,0.27-0.82,0.81v1.85h-0.31v-1.79
		c0-0.58-0.27-0.86-0.8-0.86c-0.54,0-0.82,0.29-0.82,0.86v1.79h-0.31v-2.89h0.31v0.34c0.22-0.25,0.5-0.38,0.86-0.38
		c0.44,0,0.75,0.18,0.93,0.53c0.22-0.35,0.55-0.53,0.98-0.53c0.31,0,0.57,0.09,0.76,0.28c0.2,0.19,0.3,0.46,0.3,0.8v1.85h-0.3V54.63
		z"/>
	<path class="st3" d="M195.03,52.93h0.38v0.38h-0.38V52.93z M195.07,53.53h0.31v2.89h-0.31V53.53z"/>
	<path class="st3" d="M196.28,56.13l1.74-2.33h-1.64v-0.27h1.97v0.29l-1.75,2.33h1.75v0.27h-2.06V56.13z"/>
	<path class="st3" d="M201.14,56.08c-0.22,0.25-0.5,0.38-0.85,0.38c-0.32,0-0.58-0.09-0.77-0.28c-0.2-0.19-0.3-0.46-0.3-0.8v-1.85
		h0.31v1.79c0,0.58,0.27,0.86,0.8,0.86c0.54,0,0.82-0.29,0.82-0.86v-1.79h0.31v2.89h-0.31V56.08z"/>
</g>
<polygon class="st5" points="22,20 15,24 22,28 92,28 92,20 "/>
<g>
	<path class="st3" d="M28.21,22.7c0.58,0.62,1.39,1.05,2.41,1.29l-0.27,0.52c-0.31-0.08-0.6-0.19-0.88-0.31v2.71h-0.49v-0.22h-2.95
		v0.22h-0.49V24.2c-0.27,0.12-0.56,0.22-0.88,0.3l-0.27-0.52c1.02-0.18,1.81-0.61,2.38-1.29h-2.21v-0.41h2.71v-0.73
		c-0.72,0.08-1.44,0.13-2.16,0.16l-0.08-0.49c1.59-0.04,3.13-0.22,4.62-0.55l0.19,0.49c-0.69,0.14-1.39,0.25-2.08,0.33v0.79h2.71
		v0.41H28.21z M27.75,22.89v1.04h-0.49v-1.04c-0.4,0.5-0.89,0.9-1.49,1.2h3.49C28.66,23.8,28.16,23.39,27.75,22.89z M28.98,25.19
		v-0.68h-2.95v0.68H28.98z M28.98,26.28V25.6h-2.95v0.68H28.98z"/>
	<path class="st3" d="M32.29,26.37v0.44h-0.49v-5.63h5.41v5.58h-0.49v-0.38H32.29z M32.29,21.61v1.94h1.97v-1.94H32.29z
		 M32.29,25.93h1.97v-1.94h-1.97V25.93z M36.71,21.61h-1.97v1.94h1.97V21.61z M36.71,25.93v-1.94h-1.97v1.94H36.71z"/>
	<path class="st3" d="M39.04,21.85v0.96h-0.49v-1.37h2.71v-0.77h0.49v0.77h2.71v1.37h-0.49v-0.96H39.04z M41.75,26.37h2.71v0.44
		h-5.91v-0.44h2.71v-1.39h-2.32v-0.41h5.11v0.41h-2.3V26.37z M41.01,22.26c-0.29,1.17-1,1.81-2.13,1.94l-0.16-0.49
		c0.95-0.07,1.55-0.58,1.8-1.53L41.01,22.26z M42.48,22.24v0.98c0,0.16,0.07,0.25,0.22,0.25h0.68c0.26,0,0.51-0.05,0.77-0.14v0.46
		c-0.24,0.07-0.49,0.11-0.77,0.11h-0.71c-0.46,0-0.68-0.23-0.68-0.68v-0.98H42.48z"/>
	<path class="st3" d="M45.36,22.56l0.33-0.36c0.4,0.29,0.74,0.62,1.01,0.98l-0.46,0.38C45.99,23.19,45.7,22.86,45.36,22.56z
		 M45.44,26.61c0.47-0.69,0.8-1.52,0.98-2.49l0.46,0.25c-0.18,0.97-0.49,1.81-0.93,2.54L45.44,26.61z M45.71,21.03l0.33-0.36
		c0.4,0.31,0.72,0.64,0.96,0.98l-0.46,0.36C46.33,21.67,46.06,21.34,45.71,21.03z M48.01,25.22h1.75v-0.74h-1.7
		c-0.21,0.24-0.46,0.46-0.73,0.66l-0.38-0.46c0.67-0.4,1.12-0.87,1.34-1.39h-1.26v-0.41h1.23v-0.82h-0.79v-0.41h0.79v-0.96h0.49
		v0.96h0.98v-0.96h0.49v0.96h0.93v0.41h-0.93v0.82h1.23v0.41H50.2c0.33,0.6,0.84,1.08,1.53,1.42l-0.41,0.46
		c-0.39-0.23-0.75-0.54-1.07-0.95v1.41H48.5v0.63c0,0.15,0.07,0.22,0.22,0.22h1.83c0.13,0,0.21-0.05,0.26-0.15s0.09-0.28,0.12-0.53
		l0.52,0.14c-0.02,0.27-0.1,0.51-0.23,0.7s-0.33,0.29-0.59,0.29h-2.02c-0.4,0-0.6-0.22-0.6-0.66V25.22z M48.83,23.28
		c-0.12,0.28-0.27,0.55-0.45,0.79h1.76c-0.17-0.24-0.34-0.5-0.49-0.79H48.83z M49.73,22.87v-0.82h-0.98v0.82H49.73z"/>
	<path class="st3" d="M57.5,24.03l-1.02,1.24v1.16h-0.32v-4.27h0.32v2.67l2.17-2.67h0.39l-1.32,1.63l1.54,2.64h-0.38L57.5,24.03z"/>
	<path class="st3" d="M62.05,25.6c-0.06,0.22-0.15,0.4-0.29,0.54c-0.21,0.21-0.48,0.32-0.8,0.32c-0.32,0-0.59-0.11-0.8-0.32
		C60,26,59.91,25.82,59.85,25.6c-0.04-0.17-0.07-0.38-0.07-0.62s0.02-0.46,0.07-0.62c0.06-0.22,0.15-0.4,0.29-0.54
		c0.21-0.21,0.48-0.32,0.8-0.32c0.32,0,0.59,0.11,0.8,0.32c0.14,0.14,0.24,0.32,0.29,0.54c0.04,0.17,0.07,0.38,0.07,0.62
		S62.09,25.43,62.05,25.6z M60.06,22.76v-0.28h1.78v0.28H60.06z M61.8,24.72c-0.01-0.1-0.02-0.18-0.03-0.26
		c-0.04-0.19-0.11-0.34-0.22-0.44c-0.16-0.16-0.36-0.25-0.6-0.25c-0.24,0-0.44,0.08-0.6,0.25c-0.11,0.11-0.18,0.26-0.22,0.44
		c-0.02,0.08-0.03,0.17-0.04,0.26c0,0.07-0.01,0.15-0.01,0.26c0,0.1,0,0.19,0.01,0.26c0.01,0.1,0.02,0.18,0.04,0.26
		c0.04,0.19,0.11,0.34,0.22,0.45c0.16,0.16,0.36,0.25,0.6,0.25c0.24,0,0.44-0.08,0.6-0.25c0.11-0.11,0.18-0.26,0.22-0.45
		c0.01-0.08,0.02-0.16,0.03-0.26c0-0.07,0.01-0.15,0.01-0.26C61.81,24.87,61.8,24.78,61.8,24.72z"/>
	<path class="st3" d="M64.88,26.05c-0.12,0.16-0.25,0.27-0.4,0.33c-0.12,0.05-0.28,0.08-0.46,0.08c-0.3,0-0.54-0.08-0.71-0.25
		c-0.14-0.14-0.23-0.32-0.29-0.55c-0.05-0.19-0.08-0.42-0.08-0.68c0-0.26,0.03-0.49,0.08-0.68c0.06-0.23,0.16-0.42,0.29-0.55
		c0.17-0.17,0.4-0.25,0.71-0.25c0.18,0,0.33,0.03,0.46,0.08c0.15,0.06,0.28,0.17,0.4,0.33v-1.75h0.31v4.27h-0.31V26.05z
		 M64.85,24.53c-0.02-0.15-0.06-0.28-0.11-0.39c-0.13-0.25-0.35-0.38-0.67-0.38c-0.32,0-0.54,0.13-0.67,0.38
		c-0.06,0.11-0.09,0.24-0.11,0.39c-0.02,0.12-0.03,0.27-0.03,0.44s0.01,0.32,0.03,0.44c0.02,0.15,0.06,0.28,0.11,0.38
		c0.13,0.26,0.35,0.38,0.67,0.38c0.32,0,0.54-0.13,0.67-0.38c0.06-0.1,0.09-0.23,0.11-0.38c0.02-0.12,0.03-0.27,0.03-0.44
		S64.87,24.65,64.85,24.53z"/>
	<path class="st3" d="M68.05,26.13c-0.22,0.22-0.51,0.32-0.88,0.32c-0.4,0-0.68-0.09-0.85-0.26c-0.14-0.14-0.21-0.33-0.21-0.56
		c0-0.56,0.34-0.83,1.01-0.83h0.94v-0.32c0-0.47-0.27-0.71-0.82-0.71c-0.36,0-0.63,0.12-0.8,0.37l-0.22-0.19
		c0.21-0.3,0.55-0.44,1.02-0.44c0.75,0,1.12,0.32,1.12,0.95v1.98h-0.31V26.13z M67.15,25.04c-0.49,0-0.74,0.19-0.74,0.58
		c0,0.38,0.25,0.56,0.76,0.56c0.16,0,0.28-0.01,0.38-0.04c0.13-0.03,0.25-0.09,0.34-0.19c0.11-0.1,0.16-0.29,0.16-0.55v-0.37H67.15z
		"/>
	<path class="st3" d="M73.24,25.38h-1.99l-0.37,1.04h-0.35l1.57-4.27h0.29l1.57,4.27h-0.35L73.24,25.38z M71.35,25.09h1.79
		l-0.89-2.51L71.35,25.09z"/>
	<path class="st3" d="M74.6,22.93h0.38v0.38H74.6V22.93z M74.63,23.53h0.31v2.89h-0.31V23.53z"/>
	<path class="st3" d="M77.73,23.99c-0.15-0.15-0.33-0.23-0.55-0.23c-0.24,0-0.43,0.09-0.58,0.26c-0.13,0.16-0.2,0.37-0.2,0.61v1.78
		H76.1v-2.89h0.31v0.38c0.18-0.28,0.46-0.42,0.85-0.42c0.28,0,0.51,0.09,0.7,0.28L77.73,23.99z"/>
	<path class="st3" d="M80.72,25.65c-0.06,0.23-0.16,0.42-0.29,0.55c-0.17,0.17-0.4,0.25-0.71,0.25c-0.18,0-0.33-0.03-0.46-0.08
		c-0.15-0.06-0.28-0.17-0.4-0.33v1.75h-0.31v-4.27h0.31v0.37c0.12-0.16,0.25-0.27,0.4-0.33c0.12-0.05,0.28-0.08,0.46-0.08
		c0.3,0,0.54,0.08,0.71,0.25c0.14,0.14,0.23,0.32,0.29,0.55c0.05,0.19,0.08,0.42,0.08,0.68C80.8,25.23,80.78,25.46,80.72,25.65z
		 M80.47,24.53c-0.02-0.15-0.06-0.28-0.11-0.39c-0.13-0.25-0.35-0.38-0.67-0.38c-0.32,0-0.54,0.13-0.67,0.38
		c-0.06,0.11-0.09,0.24-0.11,0.39c-0.02,0.12-0.03,0.27-0.03,0.44s0.01,0.32,0.03,0.44c0.02,0.15,0.06,0.28,0.11,0.38
		c0.13,0.26,0.35,0.38,0.67,0.38c0.32,0,0.54-0.13,0.67-0.38c0.06-0.1,0.09-0.23,0.11-0.38c0.02-0.12,0.03-0.27,0.03-0.44
		S80.49,24.65,80.47,24.53z"/>
	<path class="st3" d="M83.89,25.6c-0.06,0.22-0.15,0.4-0.29,0.54c-0.21,0.21-0.48,0.32-0.8,0.32c-0.32,0-0.59-0.11-0.8-0.32
		c-0.14-0.14-0.24-0.32-0.29-0.54c-0.04-0.17-0.07-0.38-0.07-0.62s0.02-0.46,0.07-0.62c0.06-0.22,0.15-0.4,0.29-0.54
		c0.21-0.21,0.48-0.32,0.8-0.32c0.32,0,0.59,0.11,0.8,0.32c0.14,0.14,0.24,0.32,0.29,0.54c0.04,0.17,0.07,0.38,0.07,0.62
		S83.94,25.43,83.89,25.6z M83.65,24.72c-0.01-0.1-0.02-0.18-0.03-0.26c-0.04-0.19-0.11-0.34-0.22-0.44
		c-0.16-0.16-0.36-0.25-0.6-0.25c-0.24,0-0.44,0.08-0.6,0.25c-0.11,0.11-0.18,0.26-0.22,0.44c-0.02,0.08-0.03,0.17-0.04,0.26
		c0,0.07-0.01,0.15-0.01,0.26c0,0.1,0,0.19,0.01,0.26c0.01,0.1,0.02,0.18,0.04,0.26c0.04,0.19,0.11,0.34,0.22,0.45
		c0.16,0.16,0.36,0.25,0.6,0.25c0.24,0,0.44-0.08,0.6-0.25c0.11-0.11,0.18-0.26,0.22-0.45c0.01-0.08,0.02-0.16,0.03-0.26
		c0-0.07,0.01-0.15,0.01-0.26C83.65,24.87,83.65,24.78,83.65,24.72z"/>
	<path class="st3" d="M86.58,23.99c-0.15-0.15-0.33-0.23-0.55-0.23c-0.24,0-0.43,0.09-0.58,0.26c-0.13,0.16-0.2,0.37-0.2,0.61v1.78
		h-0.31v-2.89h0.31v0.38c0.18-0.28,0.46-0.42,0.85-0.42c0.28,0,0.51,0.09,0.7,0.28L86.58,23.99z"/>
	<path class="st3" d="M88.17,26.42c-0.46,0-0.7-0.25-0.7-0.76v-1.91h-0.4v-0.23h0.4V22.6h0.31v0.92h0.65v0.23h-0.65v1.91
		c0,0.32,0.15,0.48,0.44,0.48h0.21v0.27H88.17z"/>
</g>
<polygon class="st5" points="278,20 285,24 278,28 234,28 234,20 "/>
<g>
	<path class="st3" d="M238.44,22.65l0.33-0.33c0.42,0.29,0.77,0.63,1.04,1.01l-0.41,0.38C239.14,23.31,238.82,22.96,238.44,22.65z
		 M238.44,26.58c0.62-0.66,1.07-1.5,1.34-2.52l0.44,0.25c-0.33,1.06-0.77,1.92-1.31,2.6L238.44,26.58z M238.71,21.01l0.3-0.33
		c0.42,0.27,0.76,0.59,1.01,0.96l-0.44,0.36C239.37,21.63,239.08,21.3,238.71,21.01z M240.3,21.44v-0.41h4.21v0.41h-0.71v4.87
		c0,0.4-0.2,0.6-0.6,0.6h-0.82l-0.08-0.44h0.85c0.11,0,0.16-0.05,0.16-0.16v-4.87H240.3z M240.52,22.35h2.08v2.79h-1.59v0.57h-0.49
		V22.35z M241.01,22.76v1.97h1.09v-1.97H241.01z"/>
	<path class="st3" d="M246.29,26.37v0.44h-0.49v-5.63h5.41v5.58h-0.49v-0.38H246.29z M246.29,21.61v1.94h1.97v-1.94H246.29z
		 M246.29,25.93h1.97v-1.94h-1.97V25.93z M250.71,21.61h-1.97v1.94h1.97V21.61z M250.71,25.93v-1.94h-1.97v1.94H250.71z"/>
	<path class="st3" d="M257.5,24.03l-1.02,1.24v1.16h-0.32v-4.27h0.32v2.67l2.17-2.67h0.39l-1.32,1.63l1.54,2.64h-0.38L257.5,24.03z"
		/>
	<path class="st3" d="M261.65,26.13c-0.22,0.22-0.51,0.32-0.88,0.32c-0.4,0-0.68-0.09-0.85-0.26c-0.14-0.14-0.21-0.33-0.21-0.56
		c0-0.56,0.34-0.83,1.01-0.83h0.94v-0.32c0-0.47-0.27-0.71-0.82-0.71c-0.36,0-0.63,0.12-0.8,0.37l-0.22-0.19
		c0.21-0.3,0.55-0.44,1.02-0.44c0.75,0,1.12,0.32,1.12,0.95v1.98h-0.31V26.13z M260.75,25.04c-0.49,0-0.74,0.19-0.74,0.58
		c0,0.38,0.25,0.56,0.76,0.56c0.16,0,0.28-0.01,0.38-0.04c0.13-0.03,0.25-0.09,0.34-0.19c0.11-0.1,0.16-0.29,0.16-0.55v-0.37H260.75
		z"/>
	<path class="st3" d="M265.47,26.42l-0.82-2.41l-0.82,2.41h-0.31l-0.92-2.89h0.34l0.74,2.53l0.83-2.53h0.3l0.83,2.53l0.74-2.53h0.34
		l-0.92,2.89H265.47z"/>
	<path class="st3" d="M269.07,26.13c-0.22,0.22-0.51,0.32-0.88,0.32c-0.4,0-0.68-0.09-0.85-0.26c-0.14-0.14-0.21-0.33-0.21-0.56
		c0-0.56,0.34-0.83,1.01-0.83h0.94v-0.32c0-0.47-0.27-0.71-0.82-0.71c-0.36,0-0.63,0.12-0.8,0.37l-0.22-0.19
		c0.21-0.3,0.55-0.44,1.02-0.44c0.75,0,1.12,0.32,1.12,0.95v1.98h-0.31V26.13z M268.17,25.04c-0.49,0-0.74,0.19-0.74,0.58
		c0,0.38,0.25,0.56,0.76,0.56c0.16,0,0.28-0.01,0.38-0.04c0.13-0.03,0.25-0.09,0.34-0.19c0.11-0.1,0.16-0.29,0.16-0.55v-0.37H268.17
		z"/>
	<path class="st3" d="M272.28,26.05c-0.12,0.16-0.25,0.27-0.4,0.33c-0.12,0.05-0.28,0.08-0.46,0.08c-0.3,0-0.54-0.08-0.71-0.25
		c-0.14-0.14-0.23-0.32-0.29-0.55c-0.05-0.19-0.08-0.42-0.08-0.68c0-0.26,0.03-0.49,0.08-0.68c0.06-0.23,0.16-0.42,0.29-0.55
		c0.17-0.17,0.4-0.25,0.71-0.25c0.18,0,0.33,0.03,0.46,0.08c0.15,0.06,0.28,0.17,0.4,0.33v-1.75h0.31v4.27h-0.31V26.05z
		 M272.25,24.53c-0.02-0.15-0.06-0.28-0.11-0.39c-0.13-0.25-0.35-0.38-0.67-0.38c-0.32,0-0.54,0.13-0.67,0.38
		c-0.05,0.11-0.09,0.24-0.11,0.39c-0.02,0.12-0.03,0.27-0.03,0.44s0.01,0.32,0.03,0.44c0.02,0.15,0.06,0.28,0.11,0.38
		c0.13,0.26,0.35,0.38,0.67,0.38c0.32,0,0.54-0.13,0.67-0.38c0.06-0.1,0.09-0.23,0.11-0.38c0.02-0.12,0.03-0.27,0.03-0.44
		S272.27,24.65,272.25,24.53z"/>
	<path class="st3" d="M275.45,26.13c-0.21,0.22-0.51,0.32-0.88,0.32c-0.4,0-0.68-0.09-0.85-0.26c-0.14-0.14-0.21-0.33-0.21-0.56
		c0-0.56,0.34-0.83,1.01-0.83h0.94v-0.32c0-0.47-0.27-0.71-0.82-0.71c-0.36,0-0.63,0.12-0.8,0.37l-0.22-0.19
		c0.21-0.3,0.55-0.44,1.02-0.44c0.75,0,1.12,0.32,1.12,0.95v1.98h-0.31V26.13z M274.55,25.04c-0.49,0-0.74,0.19-0.74,0.58
		c0,0.38,0.25,0.56,0.76,0.56c0.16,0,0.28-0.01,0.38-0.04c0.13-0.03,0.25-0.09,0.34-0.19c0.11-0.1,0.16-0.29,0.16-0.55v-0.37H274.55
		z"/>
</g>
<g>
	<path class="st6" d="M58,120c-2.21,0-4,1.79-4,4v8h4h12v-8v-4H58z"/>
	<path class="st4" d="M58,120c-2.21,0-4,1.79-4,4v8h4h12v-8v-4H58z"/>
</g>
<g>
	<path class="st6" d="M242,120c2.21,0,4,1.79,4,4v8h-4h-12v-8v-4H242z"/>
	<path class="st4" d="M242,120c2.21,0,4,1.79,4,4v8h-4h-12v-8v-4H242z"/>
</g>
<g>
	<g>
		<rect x="214" y="120" class="st6" width="16" height="12"/>
		<rect x="214" y="120" class="st4" width="16" height="12"/>
	</g>
	<g>
		<rect x="198" y="120" class="st6" width="16" height="12"/>
		<rect x="198" y="120" class="st4" width="16" height="12"/>
	</g>
	<g>
		<rect x="182" y="120" class="st6" width="16" height="12"/>
		<rect x="182" y="120" class="st4" width="16" height="12"/>
	</g>
	<g>
		<rect x="166" y="120" class="st6" width="16" height="12"/>
		<rect x="166" y="120" class="st4" width="16" height="12"/>
	</g>
	<g>
		<rect x="150" y="120" class="st6" width="16" height="12"/>
		<rect x="150" y="120" class="st4" width="16" height="12"/>
	</g>
	<g>
		<rect x="134" y="120" class="st6" width="16" height="12"/>
		<rect x="134" y="120" class="st4" width="16" height="12"/>
	</g>
	<g>
		<rect x="118" y="120" class="st6" width="16" height="12"/>
		<rect x="118" y="120" class="st4" width="16" height="12"/>
	</g>
	<g>
		<rect x="102" y="120" class="st6" width="16" height="12"/>
		<rect x="102" y="120" class="st4" width="16" height="12"/>
	</g>
	<g>
		<rect x="86" y="120" class="st6" width="16" height="12"/>
		<rect x="86" y="120" class="st4" width="16" height="12"/>
	</g>
	<g>
		<rect x="70" y="120" class="st6" width="16" height="12"/>
		<rect x="70" y="120" class="st4" width="16" height="12"/>
	</g>
</g>
<polygon class="st5" points="54,108 47,112 54,116 124,116 124,108 "/>
<g>
	<path class="st3" d="M60.21,110.7c0.58,0.62,1.39,1.05,2.41,1.29l-0.27,0.52c-0.31-0.08-0.6-0.19-0.88-0.31v2.71h-0.49v-0.22h-2.95
		v0.22h-0.49v-2.71c-0.27,0.12-0.56,0.22-0.88,0.3l-0.27-0.52c1.02-0.18,1.81-0.61,2.38-1.29h-2.21v-0.41h2.71v-0.73
		c-0.72,0.08-1.44,0.13-2.16,0.16l-0.08-0.49c1.59-0.04,3.13-0.22,4.62-0.55l0.19,0.49c-0.69,0.14-1.39,0.25-2.08,0.33v0.79h2.71
		v0.41H60.21z M59.75,110.89v1.04h-0.49v-1.04c-0.4,0.5-0.89,0.9-1.49,1.2h3.49C60.66,111.8,60.16,111.39,59.75,110.89z
		 M60.98,113.19v-0.68h-2.95v0.68H60.98z M60.98,114.28v-0.68h-2.95v0.68H60.98z"/>
	<path class="st3" d="M64.29,114.37v0.44h-0.49v-5.63h5.41v5.58h-0.49v-0.38H64.29z M64.29,109.61v1.94h1.97v-1.94H64.29z
		 M64.29,113.93h1.97v-1.94h-1.97V113.93z M68.71,109.61h-1.97v1.94h1.97V109.61z M68.71,113.93v-1.94h-1.97v1.94H68.71z"/>
	<path class="st3" d="M71.04,109.85v0.96h-0.49v-1.37h2.71v-0.77h0.49v0.77h2.71v1.37h-0.49v-0.96H71.04z M73.75,114.37h2.71v0.44
		h-5.91v-0.44h2.71v-1.39h-2.32v-0.41h5.11v0.41h-2.3V114.37z M73.01,110.26c-0.29,1.17-1,1.81-2.13,1.94l-0.16-0.49
		c0.95-0.07,1.55-0.58,1.8-1.53L73.01,110.26z M74.48,110.24v0.98c0,0.16,0.07,0.25,0.22,0.25h0.68c0.26,0,0.51-0.05,0.77-0.14v0.46
		c-0.24,0.07-0.49,0.11-0.77,0.11h-0.71c-0.46,0-0.68-0.23-0.68-0.68v-0.98H74.48z"/>
	<path class="st3" d="M77.36,110.56l0.33-0.36c0.4,0.29,0.74,0.62,1.01,0.98l-0.46,0.38C77.99,111.19,77.7,110.86,77.36,110.56z
		 M77.44,114.61c0.47-0.69,0.8-1.52,0.98-2.49l0.46,0.25c-0.18,0.97-0.49,1.81-0.93,2.54L77.44,114.61z M77.71,109.03l0.33-0.36
		c0.4,0.31,0.72,0.64,0.96,0.98l-0.46,0.36C78.33,109.67,78.06,109.34,77.71,109.03z M80.01,113.22h1.75v-0.74h-1.7
		c-0.21,0.24-0.46,0.46-0.73,0.66l-0.38-0.46c0.67-0.4,1.12-0.87,1.34-1.39h-1.26v-0.41h1.23v-0.82h-0.79v-0.41h0.79v-0.96h0.49
		v0.96h0.98v-0.96h0.49v0.96h0.93v0.41h-0.93v0.82h1.23v0.41H82.2c0.33,0.6,0.84,1.08,1.53,1.42l-0.41,0.46
		c-0.39-0.23-0.75-0.54-1.07-0.95v1.41H80.5v0.63c0,0.15,0.07,0.22,0.22,0.22h1.83c0.13,0,0.21-0.05,0.26-0.15s0.09-0.28,0.12-0.53
		l0.52,0.14c-0.02,0.27-0.1,0.51-0.23,0.7s-0.33,0.29-0.59,0.29h-2.02c-0.4,0-0.6-0.22-0.6-0.66V113.22z M80.83,111.28
		c-0.12,0.28-0.27,0.55-0.45,0.79h1.76c-0.17-0.24-0.34-0.5-0.49-0.79H80.83z M81.73,110.87v-0.82h-0.98v0.82H81.73z"/>
	<path class="st3" d="M89.5,112.03l-1.02,1.24v1.16h-0.32v-4.27h0.32v2.67l2.17-2.67h0.39l-1.32,1.63l1.54,2.64h-0.38L89.5,112.03z"
		/>
	<path class="st3" d="M94.05,113.6c-0.06,0.22-0.15,0.4-0.29,0.54c-0.21,0.21-0.48,0.32-0.8,0.32c-0.32,0-0.59-0.11-0.8-0.32
		c-0.14-0.14-0.24-0.32-0.29-0.54c-0.04-0.17-0.07-0.38-0.07-0.62s0.02-0.46,0.07-0.62c0.06-0.22,0.15-0.4,0.29-0.54
		c0.21-0.21,0.48-0.32,0.8-0.32c0.32,0,0.59,0.11,0.8,0.32c0.14,0.14,0.24,0.32,0.29,0.54c0.04,0.17,0.07,0.38,0.07,0.62
		S94.09,113.43,94.05,113.6z M92.06,110.76v-0.28h1.78v0.28H92.06z M93.8,112.72c-0.01-0.1-0.02-0.18-0.03-0.26
		c-0.04-0.19-0.11-0.34-0.22-0.44c-0.16-0.16-0.36-0.25-0.6-0.25c-0.24,0-0.44,0.08-0.6,0.25c-0.11,0.11-0.18,0.26-0.22,0.44
		c-0.02,0.08-0.03,0.17-0.04,0.26c0,0.07-0.01,0.15-0.01,0.26c0,0.1,0,0.19,0.01,0.26c0.01,0.1,0.02,0.18,0.04,0.26
		c0.04,0.19,0.11,0.34,0.22,0.45c0.16,0.16,0.36,0.25,0.6,0.25c0.24,0,0.44-0.08,0.6-0.25c0.11-0.11,0.18-0.26,0.22-0.45
		c0.01-0.08,0.02-0.16,0.03-0.26c0-0.07,0.01-0.15,0.01-0.26C93.81,112.87,93.8,112.78,93.8,112.72z"/>
	<path class="st3" d="M96.88,114.05c-0.12,0.16-0.25,0.27-0.4,0.33c-0.12,0.05-0.28,0.08-0.46,0.08c-0.3,0-0.54-0.08-0.71-0.25
		c-0.14-0.14-0.23-0.32-0.29-0.55c-0.05-0.19-0.08-0.42-0.08-0.68c0-0.26,0.03-0.49,0.08-0.68c0.06-0.23,0.16-0.42,0.29-0.55
		c0.17-0.17,0.4-0.25,0.71-0.25c0.18,0,0.33,0.03,0.46,0.08c0.15,0.06,0.28,0.17,0.4,0.33v-1.75h0.31v4.27h-0.31V114.05z
		 M96.85,112.53c-0.02-0.15-0.06-0.28-0.11-0.39c-0.13-0.25-0.35-0.38-0.67-0.38c-0.32,0-0.54,0.13-0.67,0.38
		c-0.06,0.11-0.09,0.24-0.11,0.39c-0.02,0.12-0.03,0.27-0.03,0.44s0.01,0.32,0.03,0.44c0.02,0.15,0.06,0.28,0.11,0.38
		c0.13,0.26,0.35,0.38,0.67,0.38c0.32,0,0.54-0.13,0.67-0.38c0.06-0.1,0.09-0.23,0.11-0.38c0.02-0.12,0.03-0.27,0.03-0.44
		S96.87,112.65,96.85,112.53z"/>
	<path class="st3" d="M100.05,114.13c-0.22,0.22-0.51,0.32-0.88,0.32c-0.4,0-0.68-0.09-0.85-0.26c-0.14-0.14-0.21-0.33-0.21-0.56
		c0-0.56,0.34-0.83,1.01-0.83h0.94v-0.32c0-0.47-0.27-0.71-0.82-0.71c-0.36,0-0.63,0.12-0.8,0.37l-0.22-0.19
		c0.21-0.3,0.55-0.44,1.02-0.44c0.75,0,1.12,0.32,1.12,0.95v1.98h-0.31V114.13z M99.15,113.04c-0.49,0-0.74,0.19-0.74,0.58
		c0,0.38,0.25,0.56,0.76,0.56c0.16,0,0.28-0.01,0.38-0.04c0.13-0.03,0.25-0.09,0.34-0.19c0.11-0.1,0.16-0.29,0.16-0.55v-0.37H99.15z
		"/>
	<path class="st3" d="M105.24,113.38h-1.99l-0.37,1.04h-0.35l1.57-4.27h0.29l1.57,4.27h-0.35L105.24,113.38z M103.35,113.09h1.79
		l-0.89-2.51L103.35,113.09z"/>
	<path class="st3" d="M106.6,110.93h0.38v0.38h-0.38V110.93z M106.63,111.53h0.31v2.89h-0.31V111.53z"/>
	<path class="st3" d="M109.73,111.99c-0.15-0.15-0.33-0.23-0.55-0.23c-0.24,0-0.43,0.09-0.58,0.26c-0.13,0.16-0.2,0.37-0.2,0.61
		v1.78h-0.31v-2.89h0.31v0.38c0.18-0.28,0.46-0.42,0.85-0.42c0.28,0,0.51,0.09,0.7,0.28L109.73,111.99z"/>
	<path class="st3" d="M112.72,113.65c-0.06,0.23-0.16,0.42-0.29,0.55c-0.17,0.17-0.4,0.25-0.71,0.25c-0.18,0-0.33-0.03-0.46-0.08
		c-0.15-0.06-0.28-0.17-0.4-0.33v1.75h-0.31v-4.27h0.31v0.37c0.12-0.16,0.25-0.27,0.4-0.33c0.12-0.05,0.28-0.08,0.46-0.08
		c0.3,0,0.54,0.08,0.71,0.25c0.14,0.14,0.23,0.32,0.29,0.55c0.05,0.19,0.08,0.42,0.08,0.68
		C112.8,113.23,112.78,113.46,112.72,113.65z M112.47,112.53c-0.02-0.15-0.06-0.28-0.11-0.39c-0.13-0.25-0.35-0.38-0.67-0.38
		c-0.32,0-0.54,0.13-0.67,0.38c-0.06,0.11-0.09,0.24-0.11,0.39c-0.02,0.12-0.03,0.27-0.03,0.44s0.01,0.32,0.03,0.44
		c0.02,0.15,0.06,0.28,0.11,0.38c0.13,0.26,0.35,0.38,0.67,0.38c0.32,0,0.54-0.13,0.67-0.38c0.06-0.1,0.09-0.23,0.11-0.38
		c0.02-0.12,0.03-0.27,0.03-0.44S112.49,112.65,112.47,112.53z"/>
	<path class="st3" d="M115.89,113.6c-0.06,0.22-0.15,0.4-0.29,0.54c-0.21,0.21-0.48,0.32-0.8,0.32c-0.32,0-0.59-0.11-0.8-0.32
		c-0.14-0.14-0.24-0.32-0.29-0.54c-0.04-0.17-0.07-0.38-0.07-0.62s0.02-0.46,0.07-0.62c0.06-0.22,0.15-0.4,0.29-0.54
		c0.21-0.21,0.48-0.32,0.8-0.32c0.32,0,0.59,0.11,0.8,0.32c0.14,0.14,0.24,0.32,0.29,0.54c0.04,0.17,0.07,0.38,0.07,0.62
		S115.94,113.43,115.89,113.6z M115.65,112.72c-0.01-0.1-0.02-0.18-0.03-0.26c-0.04-0.19-0.11-0.34-0.22-0.44
		c-0.16-0.16-0.36-0.25-0.6-0.25c-0.24,0-0.44,0.08-0.6,0.25c-0.11,0.11-0.18,0.26-0.22,0.44c-0.02,0.08-0.03,0.17-0.04,0.26
		c0,0.07-0.01,0.15-0.01,0.26c0,0.1,0,0.19,0.01,0.26c0.01,0.1,0.02,0.18,0.04,0.26c0.04,0.19,0.11,0.34,0.22,0.45
		c0.16,0.16,0.36,0.25,0.6,0.25c0.24,0,0.44-0.08,0.6-0.25c0.11-0.11,0.18-0.26,0.22-0.45c0.01-0.08,0.02-0.16,0.03-0.26
		c0-0.07,0.01-0.15,0.01-0.26C115.65,112.87,115.65,112.78,115.65,112.72z"/>
	<path class="st3" d="M118.58,111.99c-0.15-0.15-0.33-0.23-0.55-0.23c-0.24,0-0.43,0.09-0.58,0.26c-0.13,0.16-0.2,0.37-0.2,0.61
		v1.78h-0.31v-2.89h0.31v0.38c0.18-0.28,0.46-0.42,0.85-0.42c0.28,0,0.51,0.09,0.7,0.28L118.58,111.99z"/>
	<path class="st3" d="M120.17,114.42c-0.46,0-0.7-0.25-0.7-0.76v-1.91h-0.4v-0.23h0.4v-0.92h0.31v0.92h0.65v0.23h-0.65v1.91
		c0,0.32,0.15,0.48,0.44,0.48h0.21v0.27H120.17z"/>
</g>
<polygon class="st5" points="246,108 253,112 246,116 202,116 202,108 "/>
<g>
	<path class="st3" d="M206.44,110.65l0.33-0.33c0.42,0.29,0.77,0.63,1.04,1.01l-0.41,0.38
		C207.14,111.31,206.82,110.96,206.44,110.65z M206.44,114.58c0.62-0.66,1.07-1.5,1.34-2.52l0.44,0.25
		c-0.33,1.06-0.77,1.92-1.31,2.6L206.44,114.58z M206.71,109.01l0.3-0.33c0.42,0.27,0.76,0.59,1.01,0.96l-0.44,0.36
		C207.37,109.63,207.08,109.3,206.71,109.01z M208.3,109.44v-0.41h4.21v0.41h-0.71v4.87c0,0.4-0.2,0.6-0.6,0.6h-0.82l-0.08-0.44
		h0.85c0.11,0,0.16-0.05,0.16-0.16v-4.87H208.3z M208.52,110.35h2.08v2.79h-1.59v0.57h-0.49V110.35z M209.01,110.76v1.97h1.09v-1.97
		H209.01z"/>
	<path class="st3" d="M214.29,114.37v0.44h-0.49v-5.63h5.41v5.58h-0.49v-0.38H214.29z M214.29,109.61v1.94h1.97v-1.94H214.29z
		 M214.29,113.93h1.97v-1.94h-1.97V113.93z M218.71,109.61h-1.97v1.94h1.97V109.61z M218.71,113.93v-1.94h-1.97v1.94H218.71z"/>
	<path class="st3" d="M225.5,112.03l-1.02,1.24v1.16h-0.32v-4.27h0.32v2.67l2.17-2.67h0.39l-1.32,1.63l1.54,2.64h-0.38L225.5,112.03
		z"/>
	<path class="st3" d="M229.65,114.13c-0.22,0.22-0.51,0.32-0.88,0.32c-0.4,0-0.68-0.09-0.85-0.26c-0.14-0.14-0.21-0.33-0.21-0.56
		c0-0.56,0.34-0.83,1.01-0.83h0.94v-0.32c0-0.47-0.27-0.71-0.82-0.71c-0.36,0-0.63,0.12-0.8,0.37l-0.22-0.19
		c0.21-0.3,0.55-0.44,1.02-0.44c0.75,0,1.12,0.32,1.12,0.95v1.98h-0.31V114.13z M228.75,113.04c-0.49,0-0.74,0.19-0.74,0.58
		c0,0.38,0.25,0.56,0.76,0.56c0.16,0,0.28-0.01,0.38-0.04c0.13-0.03,0.25-0.09,0.34-0.19c0.11-0.1,0.16-0.29,0.16-0.55v-0.37H228.75
		z"/>
	<path class="st3" d="M233.47,114.42l-0.82-2.41l-0.82,2.41h-0.31l-0.92-2.89h0.34l0.74,2.53l0.83-2.53h0.3l0.83,2.53l0.74-2.53
		h0.34l-0.92,2.89H233.47z"/>
	<path class="st3" d="M237.07,114.13c-0.22,0.22-0.51,0.32-0.88,0.32c-0.4,0-0.68-0.09-0.85-0.26c-0.14-0.14-0.21-0.33-0.21-0.56
		c0-0.56,0.34-0.83,1.01-0.83h0.94v-0.32c0-0.47-0.27-0.71-0.82-0.71c-0.36,0-0.63,0.12-0.8,0.37l-0.22-0.19
		c0.21-0.3,0.55-0.44,1.02-0.44c0.75,0,1.12,0.32,1.12,0.95v1.98h-0.31V114.13z M236.17,113.04c-0.49,0-0.74,0.19-0.74,0.58
		c0,0.38,0.25,0.56,0.76,0.56c0.16,0,0.28-0.01,0.38-0.04c0.13-0.03,0.25-0.09,0.34-0.19c0.11-0.1,0.16-0.29,0.16-0.55v-0.37H236.17
		z"/>
	<path class="st3" d="M240.28,114.05c-0.12,0.16-0.25,0.27-0.4,0.33c-0.12,0.05-0.28,0.08-0.46,0.08c-0.3,0-0.54-0.08-0.71-0.25
		c-0.14-0.14-0.23-0.32-0.29-0.55c-0.05-0.19-0.08-0.42-0.08-0.68c0-0.26,0.03-0.49,0.08-0.68c0.06-0.23,0.16-0.42,0.29-0.55
		c0.17-0.17,0.4-0.25,0.71-0.25c0.18,0,0.33,0.03,0.46,0.08c0.15,0.06,0.28,0.17,0.4,0.33v-1.75h0.31v4.27h-0.31V114.05z
		 M240.25,112.53c-0.02-0.15-0.06-0.28-0.11-0.39c-0.13-0.25-0.35-0.38-0.67-0.38c-0.32,0-0.54,0.13-0.67,0.38
		c-0.05,0.11-0.09,0.24-0.11,0.39c-0.02,0.12-0.03,0.27-0.03,0.44s0.01,0.32,0.03,0.44c0.02,0.15,0.06,0.28,0.11,0.38
		c0.13,0.26,0.35,0.38,0.67,0.38c0.32,0,0.54-0.13,0.67-0.38c0.06-0.1,0.09-0.23,0.11-0.38c0.02-0.12,0.03-0.27,0.03-0.44
		S240.27,112.65,240.25,112.53z"/>
	<path class="st3" d="M243.45,114.13c-0.21,0.22-0.51,0.32-0.88,0.32c-0.4,0-0.68-0.09-0.85-0.26c-0.14-0.14-0.21-0.33-0.21-0.56
		c0-0.56,0.34-0.83,1.01-0.83h0.94v-0.32c0-0.47-0.27-0.71-0.82-0.71c-0.36,0-0.63,0.12-0.8,0.37l-0.22-0.19
		c0.21-0.3,0.55-0.44,1.02-0.44c0.75,0,1.12,0.32,1.12,0.95v1.98h-0.31V114.13z M242.55,113.04c-0.49,0-0.74,0.19-0.74,0.58
		c0,0.38,0.25,0.56,0.76,0.56c0.16,0,0.28-0.01,0.38-0.04c0.13-0.03,0.25-0.09,0.34-0.19c0.11-0.1,0.16-0.29,0.16-0.55v-0.37H242.55
		z"/>
</g>
<g>
	<path class="st3" d="M75.45,130.2v-1.4l3.19-3.71c0.3-0.35,0.44-0.7,0.44-1.03c0-0.71-0.34-1.07-1.03-1.07
		c-0.3,0-0.54,0.08-0.72,0.24c-0.22,0.18-0.32,0.47-0.32,0.85h-1.56c0-0.76,0.25-1.37,0.76-1.84c0.48-0.44,1.1-0.66,1.85-0.66
		c0.77,0,1.39,0.22,1.86,0.66c0.49,0.46,0.73,1.06,0.73,1.82c0,0.38-0.08,0.73-0.24,1.03c-0.11,0.22-0.34,0.53-0.67,0.92l-2.39,2.77
		h3.3v1.4H75.45z"/>
</g>
<g>
	<path class="st3" d="M95.88,129.64c-0.5,0.42-1.13,0.64-1.91,0.64c-0.76,0-1.38-0.2-1.87-0.59c-0.56-0.45-0.84-1.09-0.85-1.93h1.56
		c0.02,0.74,0.41,1.12,1.16,1.12c0.77,0,1.15-0.4,1.15-1.19c0-0.78-0.4-1.18-1.2-1.18h-0.23v-1.36h0.23c0.72,0,1.08-0.36,1.08-1.07
		c0-0.73-0.35-1.09-1.04-1.09c-0.66,0-1.02,0.34-1.06,1.03h-1.56c0.02-0.74,0.28-1.34,0.78-1.79c0.49-0.43,1.1-0.65,1.84-0.65
		c0.76,0,1.38,0.23,1.87,0.68s0.73,1.04,0.73,1.76c0,0.44-0.09,0.81-0.28,1.1c-0.17,0.27-0.4,0.49-0.71,0.65
		c0.34,0.18,0.6,0.41,0.78,0.71c0.22,0.34,0.32,0.76,0.32,1.24C96.68,128.54,96.41,129.18,95.88,129.64z"/>
</g>
<g>
	<path class="st3" d="M112.11,128.99v1.21h-1.5v-1.21h-3.49v-1.48l2.93-5.86h1.7l-2.93,5.86h1.79v-1.6h1.5v1.6h0.78v1.48H112.11z"/>
</g>
<g>
	<path class="st3" d="M128.53,128.57c-0.11,0.38-0.32,0.71-0.61,1.01c-0.21,0.21-0.46,0.37-0.76,0.49c-0.34,0.14-0.71,0.2-1.13,0.2
		s-0.8-0.07-1.15-0.2c-0.3-0.12-0.56-0.28-0.76-0.48c-0.24-0.24-0.42-0.52-0.53-0.85c-0.08-0.25-0.14-0.56-0.17-0.92h1.56
		c0.09,0.7,0.44,1.06,1.04,1.06c0.31,0,0.56-0.09,0.74-0.28c0.22-0.22,0.34-0.65,0.34-1.27c0-1.02-0.35-1.54-1.04-1.54
		c-0.29,0-0.52,0.07-0.71,0.22c-0.15,0.12-0.26,0.28-0.32,0.48h-1.43v-4.82h4.87v1.4h-3.46v1.84c0.3-0.29,0.73-0.43,1.28-0.43
		c0.68,0,1.21,0.19,1.6,0.58c0.3,0.3,0.52,0.67,0.64,1.09c0.09,0.31,0.13,0.71,0.13,1.19C128.67,127.84,128.62,128.26,128.53,128.57
		z"/>
</g>
<g>
	<path class="st3" d="M143.88,129.56c-0.49,0.47-1.12,0.71-1.9,0.71c-0.78,0-1.41-0.23-1.9-0.68c-0.51-0.48-0.77-1.13-0.77-1.96
		c0-0.35,0.07-0.73,0.22-1.14c0.06-0.17,0.13-0.36,0.23-0.56c0.06-0.14,0.16-0.34,0.28-0.58l1.8-3.7h1.7l-1.78,3.53
		c0.18-0.07,0.39-0.11,0.64-0.11c0.61,0,1.13,0.22,1.56,0.67c0.46,0.48,0.68,1.1,0.68,1.86
		C144.65,128.43,144.39,129.08,143.88,129.56z M141.98,126.37c-0.74,0-1.1,0.42-1.1,1.25s0.37,1.25,1.1,1.25
		c0.74,0,1.1-0.42,1.1-1.25S142.72,126.37,141.98,126.37z"/>
</g>
<g>
	<path class="st3" d="M158.01,130.2h-1.69l2.77-7.14h-2.26v1.34h-1.49v-2.75h5.44v1.4L158.01,130.2z"/>
</g>
<g>
	<path class="st3" d="M175.94,129.61c-0.5,0.44-1.14,0.66-1.93,0.66s-1.44-0.22-1.93-0.66c-0.54-0.46-0.8-1.1-0.8-1.9
		c0-0.46,0.12-0.88,0.36-1.24c0.17-0.26,0.4-0.48,0.71-0.68c-0.26-0.18-0.48-0.4-0.64-0.66c-0.22-0.34-0.32-0.71-0.32-1.12
		c0-0.74,0.26-1.33,0.78-1.79c0.5-0.43,1.11-0.65,1.85-0.65c0.74,0,1.35,0.22,1.85,0.65c0.51,0.46,0.77,1.05,0.77,1.79
		c0,0.41-0.1,0.78-0.31,1.12c-0.17,0.26-0.38,0.48-0.65,0.66c0.3,0.2,0.54,0.43,0.72,0.68c0.24,0.36,0.36,0.77,0.36,1.24
		C176.74,128.52,176.47,129.15,175.94,129.61z M174.85,126.85c-0.23-0.23-0.51-0.35-0.84-0.35s-0.61,0.12-0.84,0.35
		c-0.22,0.23-0.34,0.51-0.34,0.84s0.11,0.61,0.34,0.84c0.23,0.22,0.51,0.34,0.84,0.34s0.61-0.11,0.84-0.34
		c0.22-0.23,0.34-0.51,0.34-0.84S175.07,127.08,174.85,126.85z M174.01,122.99c-0.71,0-1.07,0.36-1.07,1.08s0.36,1.08,1.07,1.08
		c0.7,0,1.06-0.36,1.06-1.08S174.71,122.99,174.01,122.99z"/>
</g>
<g>
	<path class="st3" d="M192.48,125.36c-0.06,0.17-0.14,0.36-0.23,0.56l-2.09,4.27h-1.69l1.78-3.53c-0.18,0.07-0.39,0.11-0.64,0.11
		c-0.61,0-1.13-0.22-1.56-0.67c-0.46-0.48-0.7-1.1-0.7-1.86c0-0.82,0.26-1.48,0.77-1.97c0.49-0.46,1.12-0.7,1.9-0.7
		c0.78,0,1.41,0.23,1.9,0.68c0.51,0.48,0.77,1.13,0.77,1.96C192.68,124.58,192.61,124.96,192.48,125.36z M190.02,122.99
		c-0.74,0-1.1,0.42-1.1,1.25s0.37,1.25,1.1,1.25c0.74,0,1.1-0.42,1.1-1.25S190.75,122.99,190.02,122.99z"/>
</g>
<g>
	<path class="st3" d="M201.96,130.2v-6.86l-1.74,1.51v-1.68l1.74-1.51h1.56v8.54H201.96z"/>
	<path class="st3" d="M211.36,127.73c0,0.78-0.26,1.41-0.77,1.88c-0.49,0.44-1.1,0.66-1.82,0.66c-0.73,0-1.34-0.22-1.82-0.66
		c-0.52-0.47-0.78-1.1-0.78-1.88v-3.6c0-0.78,0.26-1.41,0.78-1.88c0.49-0.44,1.1-0.66,1.82-0.66c0.73,0,1.34,0.22,1.82,0.66
		c0.51,0.47,0.77,1.1,0.77,1.88V127.73z M209.8,124.15c0-0.78-0.34-1.16-1.03-1.16c-0.7,0-1.04,0.39-1.04,1.16v3.56
		c0,0.77,0.35,1.15,1.04,1.15c0.69,0,1.03-0.38,1.03-1.15V124.15z"/>
</g>
<g>
	<path class="st3" d="M218.46,130.2v-6.86l-1.74,1.51v-1.68l1.74-1.51h1.56v8.54H218.46z"/>
	<path class="st3" d="M224.98,130.2v-6.86l-1.74,1.51v-1.68l1.74-1.51h1.56v8.54H224.98z"/>
</g>
<g>
	<path class="st3" d="M233.96,130.2v-6.86l-1.74,1.51v-1.68l1.74-1.51h1.56v8.54H233.96z"/>
	<path class="st3" d="M238.21,130.2v-1.4l3.19-3.71c0.3-0.35,0.44-0.7,0.44-1.03c0-0.71-0.34-1.07-1.03-1.07
		c-0.3,0-0.54,0.08-0.72,0.24c-0.22,0.18-0.32,0.47-0.32,0.85h-1.56c0-0.76,0.25-1.37,0.76-1.84c0.48-0.44,1.1-0.66,1.85-0.66
		c0.77,0,1.39,0.22,1.86,0.66c0.49,0.46,0.73,1.06,0.73,1.82c0,0.38-0.08,0.73-0.24,1.03c-0.11,0.22-0.34,0.53-0.67,0.92l-2.39,2.77
		h3.3v1.4H238.21z"/>
</g>
<g>
	<path class="st3" d="M57.59,124.93l-0.35-0.23c0.42-0.55,0.71-1.15,0.88-1.8l0.35,0.1c-0.09,0.29-0.19,0.56-0.29,0.81v2.54h-0.35
		v-1.81C57.75,124.67,57.67,124.8,57.59,124.93z M60.03,122.39v-0.49h0.35v0.49h1.23v0.31h-1.23v0.41h-0.35v-0.41h-1.05v0.41h-0.35
		v-0.41h-1.23v-0.31h1.23v-0.49h0.35v0.49H60.03z M58.6,123.38h3.05v0.31H61.1v2.23c0,0.29-0.14,0.43-0.41,0.43h-0.53l-0.08-0.31
		h0.55c0.08,0,0.12-0.04,0.12-0.12v-2.23H58.6V123.38z M58.72,124.09h1.52v1.43h-1.17v0.33h-0.35V124.09z M59.07,124.4v0.8h0.82
		v-0.8H59.07z"/>
	<path class="st3" d="M63.21,122.84v-0.94h0.35v0.94h0.59v0.29h-0.59v1.27c0.2-0.08,0.4-0.17,0.59-0.27v0.33
		c-0.19,0.11-0.38,0.2-0.59,0.3v1.6h-0.35v-1.45c-0.24,0.09-0.49,0.18-0.74,0.26l-0.16-0.35c0.31-0.08,0.61-0.17,0.9-0.28v-1.4
		h-0.38c-0.06,0.35-0.15,0.68-0.25,0.98l-0.37-0.14c0.21-0.55,0.34-1.14,0.39-1.78l0.35,0.04c-0.02,0.21-0.04,0.41-0.07,0.61H63.21z
		 M63.86,123.79c0.43-0.53,0.69-1.17,0.78-1.89l0.35,0.06c-0.05,0.31-0.13,0.61-0.22,0.88h1.84v0.78c0,0.91-0.05,1.59-0.15,2.05
		c-0.1,0.46-0.31,0.68-0.63,0.68h-0.51l-0.06-0.31h0.49c0.18,0,0.31-0.19,0.39-0.57c0.08-0.38,0.12-1,0.12-1.86v-0.49h-0.29
		c-0.07,1.18-0.46,2.19-1.17,3.01l-0.33-0.23c0.73-0.76,1.12-1.68,1.17-2.77h-0.31c-0.14,0.98-0.57,1.82-1.29,2.54l-0.31-0.21
		c0.73-0.7,1.15-1.48,1.25-2.32h-0.3c-0.13,0.32-0.28,0.61-0.46,0.86L63.86,123.79z"/>
	<path class="st3" d="M56.63,127.46h0.16v1.99h1.13v0.14h-1.3V127.46z"/>
	<path class="st3" d="M59.25,129.43c-0.11,0.13-0.25,0.19-0.43,0.19c-0.16,0-0.29-0.05-0.38-0.14c-0.1-0.1-0.15-0.23-0.15-0.4v-0.92
		h0.15v0.9c0,0.29,0.13,0.43,0.4,0.43c0.27,0,0.41-0.14,0.41-0.43v-0.9h0.15v1.45h-0.15V129.43z"/>
	<path class="st3" d="M61.03,129.68c0,0.19-0.05,0.34-0.16,0.45c-0.11,0.12-0.25,0.18-0.43,0.18c-0.18,0-0.33-0.06-0.48-0.19
		l0.1-0.1c0.06,0.06,0.12,0.1,0.16,0.12c0.06,0.03,0.13,0.04,0.21,0.04c0.15,0,0.26-0.05,0.33-0.14c0.07-0.09,0.1-0.21,0.1-0.36
		v-0.26c-0.06,0.08-0.13,0.13-0.2,0.17c-0.06,0.03-0.14,0.04-0.23,0.04c-0.15,0-0.27-0.04-0.35-0.13c-0.07-0.07-0.12-0.16-0.15-0.28
		c-0.03-0.1-0.04-0.21-0.04-0.34s0.01-0.24,0.04-0.34c0.03-0.12,0.08-0.21,0.15-0.28c0.08-0.08,0.2-0.13,0.35-0.13
		c0.09,0,0.17,0.01,0.23,0.04c0.07,0.03,0.14,0.09,0.2,0.17v-0.19h0.15V129.68z M60.86,128.66c-0.01-0.08-0.03-0.14-0.06-0.2
		c-0.06-0.13-0.18-0.19-0.34-0.19c-0.16,0-0.27,0.06-0.34,0.19c-0.03,0.05-0.05,0.12-0.06,0.2c-0.01,0.06-0.01,0.14-0.01,0.22
		s0,0.16,0.01,0.22c0.01,0.08,0.03,0.14,0.06,0.19c0.06,0.13,0.18,0.19,0.34,0.19c0.16,0,0.27-0.06,0.34-0.19
		c0.03-0.05,0.05-0.12,0.06-0.19c0.01-0.06,0.01-0.14,0.01-0.22S60.87,128.72,60.86,128.66z"/>
	<path class="st3" d="M62.65,129.68c0,0.19-0.05,0.34-0.16,0.45c-0.11,0.12-0.25,0.18-0.43,0.18c-0.18,0-0.33-0.06-0.48-0.19
		l0.1-0.1c0.06,0.06,0.12,0.1,0.16,0.12c0.06,0.03,0.13,0.04,0.21,0.04c0.15,0,0.26-0.05,0.33-0.14c0.07-0.09,0.1-0.21,0.1-0.36
		v-0.26c-0.06,0.08-0.13,0.13-0.2,0.17c-0.06,0.03-0.14,0.04-0.23,0.04c-0.15,0-0.27-0.04-0.35-0.13c-0.07-0.07-0.12-0.16-0.15-0.28
		c-0.03-0.1-0.04-0.21-0.04-0.34s0.01-0.24,0.04-0.34c0.03-0.12,0.08-0.21,0.15-0.28c0.08-0.08,0.2-0.13,0.35-0.13
		c0.09,0,0.17,0.01,0.23,0.04c0.07,0.03,0.14,0.09,0.2,0.17v-0.19h0.15V129.68z M62.48,128.66c-0.01-0.08-0.03-0.14-0.06-0.2
		c-0.06-0.13-0.18-0.19-0.34-0.19c-0.16,0-0.27,0.06-0.34,0.19c-0.03,0.05-0.05,0.12-0.06,0.2c-0.01,0.06-0.01,0.14-0.01,0.22
		s0,0.16,0.01,0.22c0.01,0.08,0.03,0.14,0.06,0.19c0.06,0.13,0.18,0.19,0.34,0.19c0.16,0,0.27-0.06,0.34-0.19
		c0.03-0.05,0.05-0.12,0.06-0.19c0.01-0.06,0.01-0.14,0.01-0.22S62.49,128.72,62.48,128.66z"/>
	<path class="st3" d="M64.08,129.46c-0.11,0.11-0.25,0.16-0.44,0.16c-0.2,0-0.34-0.04-0.43-0.13c-0.07-0.07-0.11-0.16-0.11-0.28
		c0-0.28,0.17-0.42,0.5-0.42h0.47v-0.16c0-0.24-0.14-0.35-0.41-0.35c-0.18,0-0.31,0.06-0.4,0.18l-0.11-0.1
		c0.11-0.15,0.28-0.22,0.51-0.22c0.37,0,0.56,0.16,0.56,0.47v0.99h-0.15V129.46z M63.63,128.91c-0.25,0-0.37,0.1-0.37,0.29
		c0,0.19,0.13,0.28,0.38,0.28c0.08,0,0.14-0.01,0.19-0.02c0.07-0.02,0.12-0.05,0.17-0.09c0.05-0.05,0.08-0.14,0.08-0.28v-0.19H63.63
		z"/>
	<path class="st3" d="M65.84,129.68c0,0.19-0.05,0.34-0.16,0.45c-0.11,0.12-0.25,0.18-0.43,0.18c-0.18,0-0.33-0.06-0.48-0.19
		l0.1-0.1c0.06,0.06,0.12,0.1,0.16,0.12c0.06,0.03,0.13,0.04,0.21,0.04c0.15,0,0.26-0.05,0.33-0.14c0.07-0.09,0.1-0.21,0.1-0.36
		v-0.26c-0.06,0.08-0.13,0.13-0.2,0.17c-0.06,0.03-0.14,0.04-0.23,0.04c-0.15,0-0.27-0.04-0.35-0.13c-0.07-0.07-0.12-0.16-0.15-0.28
		c-0.03-0.1-0.04-0.21-0.04-0.34s0.01-0.24,0.04-0.34c0.03-0.12,0.08-0.21,0.15-0.28c0.08-0.08,0.2-0.13,0.35-0.13
		c0.09,0,0.17,0.01,0.23,0.04c0.07,0.03,0.14,0.09,0.2,0.17v-0.19h0.15V129.68z M65.67,128.66c-0.01-0.08-0.03-0.14-0.06-0.2
		c-0.06-0.13-0.18-0.19-0.34-0.19c-0.16,0-0.27,0.06-0.34,0.19c-0.03,0.05-0.05,0.12-0.06,0.2c-0.01,0.06-0.01,0.14-0.01,0.22
		s0,0.16,0.01,0.22c0.01,0.08,0.03,0.14,0.06,0.19c0.06,0.13,0.18,0.19,0.34,0.19c0.16,0,0.27-0.06,0.34-0.19
		c0.03-0.05,0.05-0.12,0.06-0.19c0.01-0.06,0.01-0.14,0.01-0.22S65.68,128.72,65.67,128.66z"/>
	<path class="st3" d="M66.49,128.91c0,0.38,0.16,0.57,0.47,0.57c0.15,0,0.28-0.06,0.4-0.17l0.11,0.09
		c-0.08,0.08-0.15,0.13-0.22,0.17c-0.08,0.04-0.18,0.06-0.3,0.06c-0.41,0-0.62-0.25-0.62-0.74s0.19-0.74,0.58-0.74
		s0.58,0.24,0.58,0.71v0.07H66.49z M67.34,128.79c-0.01-0.12-0.03-0.21-0.05-0.27c-0.07-0.16-0.19-0.24-0.38-0.24
		c-0.18,0-0.31,0.08-0.38,0.24c-0.03,0.08-0.04,0.17-0.05,0.27H67.34z"/>
</g>
<line class="st4" x1="144" y1="70" x2="156" y2="70"/>
</svg>
