<?xml version="1.0" encoding="utf-8"?>
<!-- Generator: Adobe Illustrator 23.0.3, SVG Export Plug-In . SVG Version: 6.00 Build 0)  -->
<svg version="1.1" id="Layer_1" xmlns="http://www.w3.org/2000/svg" xmlns:xlink="http://www.w3.org/1999/xlink" x="0px" y="0px"
	 viewBox="0 0 100 100" style="enable-background:new 0 0 100 100;" xml:space="preserve">
<style type="text/css">
	.st0{fill:#FFFFFF;}
</style>
<g>
	<path class="st0" d="M63.94,26.65c-6.18,0-9.27,3.48-9.27,10.44v27.9c0,6.96,3.09,10.44,9.27,10.44c6.24,0,9.36-3.48,9.36-10.44
		v-27.9C73.3,30.13,70.18,26.65,63.94,26.65z"/>
	<path class="st0" d="M50,0C22.39,0,0,22.39,0,50c0,27.61,22.39,50,50,50s50-22.39,50-50C100,22.39,77.61,0,50,0z M36.95,83.08
		h-9.18V28.99L15.26,39.97V29.8L27.77,19h9.18V83.08z M82.48,65.26c0,5.58-1.83,10.08-5.49,13.5c-3.42,3.24-7.77,4.86-13.05,4.86
		c-5.22,0-9.57-1.62-13.05-4.86c-3.6-3.42-5.4-7.92-5.4-13.5V36.82c0-5.58,1.8-10.08,5.4-13.5c3.48-3.24,7.83-4.86,13.05-4.86
		c5.28,0,9.63,1.62,13.05,4.86c3.66,3.42,5.49,7.92,5.49,13.5V65.26z"/>
</g>
</svg>
