<?xml version="1.0" encoding="utf-8"?>
<!-- Generator: Adobe Illustrator 23.0.3, SVG Export Plug-In . SVG Version: 6.00 Build 0)  -->
<svg version="1.1" id="Layer_1" xmlns="http://www.w3.org/2000/svg" xmlns:xlink="http://www.w3.org/1999/xlink" x="0px" y="0px"
	 viewBox="0 0 100 100" style="enable-background:new 0 0 100 100;" xml:space="preserve">
<style type="text/css">
	.st0{fill:#FFFFFF;}
</style>
<path class="st0" d="M50,0C22.39,0,0,22.39,0,50c0,27.61,22.39,50,50,50s50-22.39,50-50C100,22.39,77.61,0,50,0z M70.25,72.1
	c-0.93,3.33-2.6,6.2-5,8.6c-3.73,3.73-8.73,5.6-15,5.6c-6.47,0-11.54-1.83-15.2-5.5c-1.8-1.8-3.13-3.9-4-6.3
	c-0.73-2-1.2-4.43-1.4-7.3h10.2c0.87,6.6,4.33,9.9,10.4,9.9c3.07,0,5.53-0.93,7.4-2.8c1.33-1.33,2.27-3.2,2.8-5.6
	c0.4-1.73,0.6-4.03,0.6-6.9c0-4.67-0.7-8.2-2.1-10.6c-1.67-2.87-4.43-4.3-8.3-4.3c-5.4,0-8.77,2.13-10.1,6.4h-9.3V14.4h38.4v9.1
	h-29.2v18.8c2.6-2.73,6.53-4.1,11.8-4.1c5.46,0,9.73,1.53,12.8,4.6c2.47,2.47,4.17,5.47,5.1,9c0.73,2.67,1.1,6,1.1,10
	C71.25,66.13,70.92,69.57,70.25,72.1z"/>
</svg>
