<?xml version="1.0" encoding="utf-8"?>
<!-- Generator: Adobe Illustrator 23.0.3, SVG Export Plug-In . SVG Version: 6.00 Build 0)  -->
<svg version="1.1" id="Layer_1" xmlns="http://www.w3.org/2000/svg" xmlns:xlink="http://www.w3.org/1999/xlink" x="0px" y="0px"
	 viewBox="0 0 100 100" style="enable-background:new 0 0 100 100;" xml:space="preserve">
<style type="text/css">
	.st0{fill:#FFFFFF;}
</style>
<path class="st0" d="M50,0C22.39,0,0,22.39,0,50c0,27.61,22.39,50,50,50s50-22.39,50-50C100,22.39,77.61,0,50,0z M71.05,76.5v9.1
	h-41.4v-9.1l27.4-33.3c2.53-3.07,3.8-6.23,3.8-9.5c0-7.2-3.47-10.8-10.4-10.8c-3,0-5.43,0.83-7.3,2.5c-2.13,1.93-3.2,4.77-3.2,8.5
	h-10.2c0-6,1.93-10.87,5.8-14.6c3.87-3.67,8.83-5.5,14.9-5.5c6.13,0,11.1,1.8,14.9,5.4c3.8,3.67,5.7,8.53,5.7,14.6
	c0,2.93-0.57,5.6-1.7,8c-0.93,1.93-2.6,4.4-5,7.4l-22.3,27.3H71.05z"/>
</svg>
