<?xml version="1.0" encoding="utf-8"?>
<!-- Generator: Adobe Illustrator 23.0.3, SVG Export Plug-In . SVG Version: 6.00 Build 0)  -->
<svg version="1.1" id="Layer_1" xmlns="http://www.w3.org/2000/svg" xmlns:xlink="http://www.w3.org/1999/xlink" x="0px" y="0px"
	 viewBox="0 0 100 100" style="enable-background:new 0 0 100 100;" xml:space="preserve">
<style type="text/css">
	.st0{fill:#FFFFFF;}
</style>
<path class="st0" d="M50,0C22.39,0,0,22.39,0,50c0,27.61,22.39,50,50,50s50-22.39,50-50C100,22.39,77.61,0,50,0z M64.75,81.1
	c-4,3.47-9.13,5.2-15.4,5.2c-6.13,0-11.13-1.6-15-4.8c-4.33-3.53-6.6-8.6-6.8-15.2h10.2c0.2,3.6,1.43,6.33,3.7,8.2
	c2.07,1.73,4.7,2.6,7.9,2.6c7.73,0,11.6-3.93,11.6-11.8c0-7.8-3.97-11.7-11.9-11.7h-1.7v-8.9h1.7c7.2,0,10.8-3.6,10.8-10.8
	c0-7.33-3.5-11-10.5-11c-6.6,0-10.17,3.4-10.7,10.2h-10.2c0.27-5.93,2.4-10.67,6.4-14.2c3.87-3.47,8.7-5.2,14.5-5.2
	c6.07,0,11.03,1.83,14.9,5.5c3.87,3.73,5.8,8.53,5.8,14.4c0,7.2-2.97,12.27-8.9,15.2c6.67,2.93,10,8.53,10,16.8
	C71.15,72.2,69.02,77.37,64.75,81.1z"/>
</svg>
