<?xml version="1.0" encoding="utf-8"?>
<!-- Generator: Adobe Illustrator 23.0.3, SVG Export Plug-In . SVG Version: 6.00 Build 0)  -->
<svg version="1.1" id="Layer_1" xmlns="http://www.w3.org/2000/svg" xmlns:xlink="http://www.w3.org/1999/xlink" x="0px" y="0px"
	 viewBox="0 0 100 100" style="enable-background:new 0 0 100 100;" xml:space="preserve">
<style type="text/css">
	.st0{fill:#FFFFFF;}
</style>
<path class="st0" d="M50,0C22.39,0,0,22.39,0,50c0,27.61,22.39,50,50,50s50-22.39,50-50C100,22.39,77.61,0,50,0z M36.95,83.08h-9.18
	V28.99L15.26,39.97V29.8L27.77,19h9.18V83.08z M77.26,79.03c-3.6,3.12-8.22,4.68-13.86,4.68c-5.52,0-10.02-1.44-13.5-4.32
	c-3.9-3.18-5.94-7.74-6.12-13.68h9.18c0.18,3.24,1.29,5.7,3.33,7.38c1.86,1.56,4.23,2.34,7.11,2.34c6.96,0,10.44-3.54,10.44-10.62
	c0-7.02-3.57-10.53-10.71-10.53H61.6v-8.01h1.53c6.48,0,9.72-3.24,9.72-9.72c0-6.6-3.15-9.9-9.45-9.9c-5.94,0-9.15,3.06-9.63,9.18
	h-9.18c0.24-5.34,2.16-9.6,5.76-12.78c3.48-3.12,7.83-4.68,13.05-4.68c5.46,0,9.93,1.65,13.41,4.95c3.48,3.36,5.22,7.68,5.22,12.96
	c0,6.48-2.67,11.04-8.01,13.68c6,2.64,9,7.68,9,15.12C83.02,71.02,81.1,75.67,77.26,79.03z"/>
</svg>
