<?xml version="1.0" encoding="utf-8"?>
<!-- Generator: Adobe Illustrator 23.0.3, SVG Export Plug-In . SVG Version: 6.00 Build 0)  -->
<svg version="1.1" id="Layer_1" xmlns="http://www.w3.org/2000/svg" xmlns:xlink="http://www.w3.org/1999/xlink" x="0px" y="0px"
	 viewBox="0 0 100 100" style="enable-background:new 0 0 100 100;" xml:space="preserve">
<style type="text/css">
	.st0{fill:#FFFFFF;}
</style>
<path class="st0" d="M50,0C22.39,0,0,22.39,0,50c0,27.61,22.39,50,50,50s50-22.39,50-50C100,22.39,77.61,0,50,0z M36.95,83.08h-9.18
	V28.99L15.26,39.97V29.8L27.77,19h9.18V83.08z M82.21,70.93c-0.84,3-2.34,5.58-4.5,7.74c-3.36,3.36-7.86,5.04-13.5,5.04
	c-5.82,0-10.38-1.65-13.68-4.95c-1.62-1.62-2.82-3.51-3.6-5.67c-0.66-1.8-1.08-3.99-1.26-6.57h9.18c0.78,5.94,3.9,8.91,9.36,8.91
	c2.76,0,4.98-0.84,6.66-2.52c1.2-1.2,2.04-2.88,2.52-5.04c0.36-1.56,0.54-3.63,0.54-6.21c0-4.2-0.63-7.38-1.89-9.54
	c-1.5-2.58-3.99-3.87-7.47-3.87c-4.86,0-7.89,1.92-9.09,5.76h-8.37V19h34.56v8.19H55.39v16.92c2.34-2.46,5.88-3.69,10.62-3.69
	c4.92,0,8.76,1.38,11.52,4.14c2.22,2.22,3.75,4.92,4.59,8.1c0.66,2.4,0.99,5.4,0.99,9C83.11,65.56,82.81,68.65,82.21,70.93z"/>
</svg>
