<?xml version="1.0" encoding="utf-8"?>
<!-- Generator: Adobe Illustrator 23.0.3, SVG Export Plug-In . SVG Version: 6.00 Build 0)  -->
<svg version="1.1" id="Layer_1" xmlns="http://www.w3.org/2000/svg" xmlns:xlink="http://www.w3.org/1999/xlink" x="0px" y="0px"
	 viewBox="0 0 100 100" style="enable-background:new 0 0 100 100;" xml:space="preserve">
<style type="text/css">
	.st0{fill:#FFFFFF;}
</style>
<g>
	<path class="st0" d="M63.94,46.18c6.36,0,9.54-3.24,9.54-9.72c0-2.82-0.9-5.16-2.7-7.02c-1.8-1.86-4.08-2.79-6.84-2.79
		c-6.3,0-9.45,3.27-9.45,9.81C54.49,42.94,57.64,46.18,63.94,46.18z"/>
	<path class="st0" d="M50,0C22.39,0,0,22.39,0,50c0,27.61,22.39,50,50,50s50-22.39,50-50C100,22.39,77.61,0,50,0z M36.95,83.08
		h-9.18V28.99L15.26,39.97V29.8L27.77,19h9.18V83.08z M77.98,78.67c-3.72,3.3-8.4,4.95-14.04,4.95c-5.64,0-10.29-1.65-13.95-4.95
		c-3.84-3.48-5.76-8.04-5.76-13.68c0-3.54,0.9-6.66,2.7-9.36c1.5-2.22,3.54-4.11,6.12-5.67c-2.28-1.38-4.08-3.15-5.4-5.31
		c-1.56-2.46-2.34-5.28-2.34-8.46c0-5.28,1.8-9.57,5.4-12.87c3.48-3.24,7.89-4.86,13.23-4.86c5.34,0,9.78,1.62,13.32,4.86
		c3.6,3.3,5.4,7.59,5.4,12.87c0,3.18-0.78,6-2.34,8.46c-1.32,2.16-3.12,3.93-5.4,5.31c2.58,1.56,4.62,3.45,6.12,5.67
		c1.8,2.7,2.7,5.82,2.7,9.36C83.74,70.63,81.82,75.19,77.98,78.67z"/>
	<path class="st0" d="M63.94,54.1c-2.94,0-5.43,1.05-7.47,3.15c-2.04,2.04-3.06,4.56-3.06,7.56c0,3,1.02,5.52,3.06,7.56
		c2.04,2.04,4.53,3.06,7.47,3.06c2.94,0,5.43-1.02,7.47-3.06c2.04-2.04,3.06-4.56,3.06-7.56c0-3-1.02-5.52-3.06-7.56
		C69.37,55.15,66.88,54.1,63.94,54.1z"/>
</g>
</svg>
