<?xml version="1.0" encoding="utf-8"?>
<!-- Generator: Adobe Illustrator 23.0.3, SVG Export Plug-In . SVG Version: 6.00 Build 0)  -->
<svg version="1.1" id="Layer_1" xmlns="http://www.w3.org/2000/svg" xmlns:xlink="http://www.w3.org/1999/xlink" x="0px" y="0px"
	 viewBox="0 0 100 100" style="enable-background:new 0 0 100 100;" xml:space="preserve">
<style type="text/css">
	.st0{fill:#FFFFFF;}
</style>
<g>
	<path class="st0" d="M49.95,52.4c-7.2,0-10.8,4.1-10.8,12.3c0,8.27,3.6,12.4,10.8,12.4c7.27,0,10.9-4.13,10.9-12.4
		C60.85,56.5,57.22,52.4,49.95,52.4z"/>
	<path class="st0" d="M50,0C22.39,0,0,22.39,0,50c0,27.61,22.39,50,50,50s50-22.39,50-50C100,22.39,77.61,0,50,0z M65.15,80.3
		c-3.87,3.93-8.9,5.9-15.1,5.9c-6.27,0-11.33-1.9-15.2-5.7c-3.93-3.87-5.9-9.07-5.9-15.6c0-2.67,0.5-5.53,1.5-8.6
		c0.8-2.47,2.07-5.43,3.8-8.9l16.2-33h10.9L46.05,45c1.73-0.73,3.83-1.1,6.3-1.1c5.27,0,9.67,1.87,13.2,5.6
		c3.67,3.87,5.5,8.87,5.5,15C71.05,71.04,69.08,76.3,65.15,80.3z"/>
</g>
</svg>
