<?xml version="1.0" encoding="utf-8"?>
<!-- Generator: Adobe Illustrator 23.0.3, SVG Export Plug-In . SVG Version: 6.00 Build 0)  -->
<svg version="1.1" id="Layer_1" xmlns="http://www.w3.org/2000/svg" xmlns:xlink="http://www.w3.org/1999/xlink" x="0px" y="0px"
	 viewBox="0 0 100 100" style="enable-background:new 0 0 100 100;" xml:space="preserve">
<style type="text/css">
	.st0{fill:#FFFFFF;}
</style>
<g>
	<path class="st0" d="M49.95,22.9c-6.87,0-10.3,3.87-10.3,11.6v31c0,7.73,3.43,11.6,10.3,11.6c6.93,0,10.4-3.87,10.4-11.6v-31
		C60.35,26.77,56.88,22.9,49.95,22.9z"/>
	<path class="st0" d="M50,0C22.39,0,0,22.39,0,50c0,27.61,22.39,50,50,50s50-22.39,50-50C100,22.39,77.61,0,50,0z M70.55,65.8
		c0,6.2-2.03,11.2-6.1,15c-3.8,3.6-8.63,5.4-14.5,5.4c-5.8,0-10.63-1.8-14.5-5.4c-4-3.8-6-8.8-6-15V34.2c0-6.2,2-11.2,6-15
		c3.87-3.6,8.7-5.4,14.5-5.4c5.87,0,10.7,1.8,14.5,5.4c4.07,3.8,6.1,8.8,6.1,15V65.8z"/>
</g>
</svg>
