<?xml version="1.0" encoding="utf-8"?>
<!-- Generator: Adobe Illustrator 23.0.3, SVG Export Plug-In . SVG Version: 6.00 Build 0)  -->
<svg version="1.1" id="Layer_1" xmlns="http://www.w3.org/2000/svg" xmlns:xlink="http://www.w3.org/1999/xlink" x="0px" y="0px"
	 viewBox="0 0 100 100" style="enable-background:new 0 0 100 100;" xml:space="preserve">
<style type="text/css">
	.st0{fill:#FFFFFF;}
</style>
<g>
	<path class="st0" d="M50,0C22.39,0,0,22.39,0,50c0,27.61,22.39,50,50,50s50-22.39,50-50C100,22.39,77.61,0,50,0z M69.55,43.7
		c-0.8,2.47-2.07,5.43-3.8,8.9l-16.2,33h-10.9L53.95,55c-1.73,0.73-3.87,1.1-6.4,1.1c-5.27,0-9.67-1.87-13.2-5.6
		c-3.6-3.87-5.4-8.87-5.4-15c0-6.53,1.97-11.8,5.9-15.8c3.87-3.93,8.9-5.9,15.1-5.9c6.27,0,11.33,1.9,15.2,5.7
		c3.93,3.87,5.9,9.07,5.9,15.6C71.05,37.77,70.55,40.63,69.55,43.7z"/>
	<path class="st0" d="M49.95,22.9c-7.2,0-10.8,4.13-10.8,12.4c0,8.2,3.6,12.3,10.8,12.3c7.27,0,10.9-4.1,10.9-12.3
		C60.85,27.03,57.22,22.9,49.95,22.9z"/>
</g>
</svg>
