<?xml version="1.0" encoding="utf-8"?>
<!-- Generator: Adobe Illustrator 23.0.3, SVG Export Plug-In . SVG Version: 6.00 Build 0)  -->
<svg version="1.1" id="Layer_1" xmlns="http://www.w3.org/2000/svg" xmlns:xlink="http://www.w3.org/1999/xlink" x="0px" y="0px"
	 viewBox="0 0 100 100" style="enable-background:new 0 0 100 100;" xml:space="preserve">
<style type="text/css">
	.st0{fill:#FFFFFF;}
</style>
<g>
	<path class="st0" d="M49.95,44.6c7.07,0,10.6-3.6,10.6-10.8c0-3.13-1-5.73-3-7.8c-2-2.07-4.53-3.1-7.6-3.1
		c-7,0-10.5,3.63-10.5,10.9C39.45,41,42.95,44.6,49.95,44.6z"/>
	<path class="st0" d="M49.95,53.4c-3.27,0-6.03,1.17-8.3,3.5c-2.27,2.27-3.4,5.07-3.4,8.4s1.13,6.13,3.4,8.4
		c2.27,2.27,5.03,3.4,8.3,3.4c3.27,0,6.03-1.13,8.3-3.4c2.27-2.27,3.4-5.07,3.4-8.4s-1.13-6.13-3.4-8.4
		C55.98,54.57,53.22,53.4,49.95,53.4z"/>
	<path class="st0" d="M50,0C22.39,0,0,22.39,0,50c0,27.61,22.39,50,50,50s50-22.39,50-50C100,22.39,77.61,0,50,0z M65.55,80.7
		c-4.13,3.67-9.33,5.5-15.6,5.5c-6.27,0-11.43-1.83-15.5-5.5c-4.27-3.87-6.4-8.93-6.4-15.2c0-3.93,1-7.4,3-10.4
		c1.67-2.46,3.93-4.56,6.8-6.3c-2.53-1.53-4.53-3.5-6-5.9c-1.73-2.73-2.6-5.87-2.6-9.4c0-5.87,2-10.63,6-14.3
		c3.87-3.6,8.77-5.4,14.7-5.4s10.87,1.8,14.8,5.4c4,3.67,6,8.43,6,14.3c0,3.54-0.87,6.67-2.6,9.4c-1.47,2.4-3.47,4.37-6,5.9
		c2.87,1.73,5.13,3.83,6.8,6.3c2,3,3,6.47,3,10.4C71.95,71.77,69.82,76.83,65.55,80.7z"/>
</g>
</svg>
